<svg xmlns="http://www.w3.org/2000/svg" width="190.974" height="80.161" viewBox="0 0 190.974 80.161"><g transform="translate(-398.196 -49.985)"><g transform="translate(400.155 49.985)"><path d="M405.76,50.408h5.3c-3.674,26.389,9.395,52.78,5.949,79.17h-5.38a104.434,104.434,0,0,0,.315-17.516h-5.214c-.321,5.839-.724,11.677-1.48,17.516h-5.385C402.976,103.188,402.393,76.8,405.76,50.408Zm5.787,56.805c-.98-14.218-3.887-28.437-4.272-42.654-.709,14.218.415,28.435-.37,42.654Z" transform="translate(-399.869 -49.913)" fill="#c9ea50"/><path d="M421.539,129.084a6.244,6.244,0,0,1-2.325-2.672,7.017,7.017,0,0,1-.553-3.86c3.755-24.048-8.864-48.1-1.6-72.144h5.312c-8.9,24.048,6.569,48.1,1.977,72.144a2.226,2.226,0,0,0,.517,1.93,2.483,2.483,0,0,0,1.921.741,3.811,3.811,0,0,0,2.34-.741,2.986,2.986,0,0,0,1.21-1.93c5.4-24.048-12.823-48.1-2.355-72.144H433.3c-11.817,24.048,8.781,48.1,2.692,72.144a7.727,7.727,0,0,1-2.068,3.86,11.909,11.909,0,0,1-3.932,2.672,11.5,11.5,0,0,1-4.57.99A7.028,7.028,0,0,1,421.539,129.084Z" transform="translate(-397.318 -49.913)" fill="#c9ea50"/><path d="M434.361,50.408h8.179a5.725,5.725,0,0,1,3.558.99,3.683,3.683,0,0,1,1.422,2.721,9.594,9.594,0,0,1-.6,3.91c-6.235,21.31,14.1,42.62,7.612,63.93a8.446,8.446,0,0,1-2.409,3.91,13.387,13.387,0,0,1-4.276,2.721,12.559,12.559,0,0,1-4.732.99h-8.249C447.837,103.188,420.782,76.8,434.361,50.408Zm13.208,73.53a3.464,3.464,0,0,0,1.38-1.979c6.119-21.31-13.015-42.62-7.166-63.93a2.411,2.411,0,0,0-.057-1.979,1.77,1.77,0,0,0-1.688-.792h-2.673c-8.36,23.158,13.175,46.315,4.918,69.472h2.873A3.968,3.968,0,0,0,447.569,123.938Z" transform="translate(-394.635 -49.913)" fill="#c9ea50"/><path d="M451.612,50.408h5.33c-18.275,26.389,18.519,52.78.684,79.17h-5.358C469.308,103.188,434.073,76.8,451.612,50.408Z" transform="translate(-391.871 -49.913)" fill="#c9ea50"/><path d="M464.44,129.206a3.734,3.734,0,0,1-1.346-2.672,8.75,8.75,0,0,1,.513-3.81c7.945-21.772-15.792-43.545-7.968-65.317a9.65,9.65,0,0,1,2.885-3.81,15.758,15.758,0,0,1,4.576-2.672,13.536,13.536,0,0,1,4.781-.941,5.684,5.684,0,0,1,3.561.941,3.22,3.22,0,0,1,1.176,2.672,10.052,10.052,0,0,1-.832,3.81c-8.4,21.772,16.956,43.545,8.509,65.317a9.542,9.542,0,0,1-2.84,3.81,15.22,15.22,0,0,1-4.628,2.672,14.342,14.342,0,0,1-4.946.941A5.422,5.422,0,0,1,464.44,129.206Zm8.865-4.651a3.764,3.764,0,0,0,1.554-1.831c8.34-21.772-16.655-43.545-8.388-65.317a2.189,2.189,0,0,0,.073-1.831c-.249-.494-.789-.743-1.64-.743a4.492,4.492,0,0,0-2.379.743,3.875,3.875,0,0,0-1.632,1.831c-8.068,21.772,16.368,43.545,8.2,65.317a2,2,0,0,0,.083,1.831,1.822,1.822,0,0,0,1.67.741A4.451,4.451,0,0,0,473.306,124.555Z" transform="translate(-390.594 -49.985)" fill="#c9ea50"/><path d="M475.662,50.408h5.343c-15.255,21.64,10.177,43.28,9.65,64.92,2.587-21.64-20.458-43.28-3.216-64.92h5.349c-21.626,26.389,16.684,52.78-5.09,79.17h-5.343C500.344,103.188,457.626,76.8,475.662,50.408Z" transform="translate(-387.668 -49.913)" fill="#c9ea50"/><path d="M492.876,50.408h5.353c-18.977,26.389,20.008,52.78.724,79.17h-5.336C513.258,103.188,473.46,76.8,492.876,50.408Z" transform="translate(-384.884 -49.913)" fill="#c9ea50"/><path d="M505.617,129.206a3.424,3.424,0,0,1-1.239-2.672,9.5,9.5,0,0,1,.787-3.91c3.281-8.247,1.459-16.493-1.387-24.74h5.266c2.785,8.247,4.584,16.493,1.357,24.74a2.209,2.209,0,0,0-.04,1.93,1.669,1.669,0,0,0,1.586.741,4.237,4.237,0,0,0,2.384-.741,3.957,3.957,0,0,0,1.564-1.93c3.233-8.477,1.273-16.956-1.54-25.434a7.227,7.227,0,0,0-2.406-3.661,24.386,24.386,0,0,0-4.409-2.475q-2.458-1.088-4-1.929a10.885,10.885,0,0,1-2.964-2.475,11.706,11.706,0,0,1-2.255-4.206c-2.6-8.312-4.112-16.626-1.306-24.938A9.088,9.088,0,0,1,499.8,53.6a15.282,15.282,0,0,1,4.517-2.672,13.335,13.335,0,0,1,4.752-.941,6.132,6.132,0,0,1,3.653.941,3.831,3.831,0,0,1,1.54,2.672,9.136,9.136,0,0,1-.358,3.91c-2.119,7.62-1.258,15.24.568,22.86h-5.513c-1.956-7.62-2.889-15.24-.608-22.86a2.168,2.168,0,0,0-.169-1.881,1.976,1.976,0,0,0-1.81-.792,4.083,4.083,0,0,0-2.359.792,3.725,3.725,0,0,0-1.5,1.881c-2.512,7.851-1.374,15.7.84,23.553a7.355,7.355,0,0,0,2.386,3.86,22.312,22.312,0,0,0,4.773,2.672q2.219.991,3.72,1.781a9.277,9.277,0,0,1,2.823,2.424,12.237,12.237,0,0,1,2.09,4.008c2.9,8.94,5.215,17.88,1.918,26.819a9.67,9.67,0,0,1-2.711,3.91,13.948,13.948,0,0,1-4.417,2.672,13.68,13.68,0,0,1-4.868.941A5.453,5.453,0,0,1,505.617,129.206Z" transform="translate(-383.491 -49.985)" fill="#c9ea50"/><path d="M522.553,129.084a3.932,3.932,0,0,1-1.479-2.672,8.339,8.339,0,0,1,.548-3.86c6.979-24.048-17.777-48.1-3.939-72.144h5.365c-12.812,24.048,10.143,48.1,3.689,72.144a2.212,2.212,0,0,0,.07,1.93,1.757,1.757,0,0,0,1.613.741,3.849,3.849,0,0,0,2.284-.741,3.624,3.624,0,0,0,1.4-1.93c5.843-24.048-15.01-48.1-3.388-72.144h5.369c-10.389,24.048,8.283,48.1,3.066,72.144a8.72,8.72,0,0,1-2.273,3.86,12.393,12.393,0,0,1-4.03,2.672,12,12,0,0,1-4.651.99A5.813,5.813,0,0,1,522.553,129.084Z" transform="translate(-380.427 -49.913)" fill="#c9ea50"/><path d="M539.429,50.408h5.376c-4.8,26.389,11.1,52.78,6,79.17H545.5a55.008,55.008,0,0,0,1.909-17.516H543.15a45.774,45.774,0,0,1-3.948,17.516h-5.315C546.608,103.188,527.4,76.8,539.429,50.408Zm7.441,56.805c-2.208-14.218-6.628-28.437-6.828-42.654-1.424,14.218,1.736,28.435,2.974,42.654Z" transform="translate(-376.919 -49.913)" fill="#c9ea50"/><path d="M550.8,50.408h5.382c-2.5,24.773,2.275,49.547.582,74.321h6.5v4.849H550.983C556,103.188,546.115,76.8,550.8,50.408Z" transform="translate(-374.245 -49.913)" fill="#c9ea50"/></g><g transform="translate(398.196 49.985)"><path d="M404.087,50.408h5.306c-3.674,26.389,9.393,52.78,5.948,79.17h-5.38a104.431,104.431,0,0,0,.315-17.516h-5.214c-.321,5.839-.724,11.677-1.48,17.516H398.2C401.3,103.188,400.72,76.8,404.087,50.408Zm5.787,56.805c-.98-14.218-3.887-28.437-4.272-42.654-.709,14.218.415,28.435-.37,42.654Z" transform="translate(-398.196 -49.913)" fill="#17171a"/><path d="M419.866,129.084a6.259,6.259,0,0,1-2.325-2.672,7.018,7.018,0,0,1-.553-3.86c3.756-24.048-8.863-48.1-1.6-72.144h5.31c-8.894,24.048,6.571,48.1,1.977,72.144a2.226,2.226,0,0,0,.517,1.93,2.484,2.484,0,0,0,1.921.741,3.814,3.814,0,0,0,2.34-.741,2.986,2.986,0,0,0,1.21-1.93c5.4-24.048-12.822-48.1-2.355-72.144h5.316c-11.817,24.048,8.782,48.1,2.692,72.144a7.736,7.736,0,0,1-2.068,3.86,11.9,11.9,0,0,1-3.932,2.672,11.5,11.5,0,0,1-4.57.99A7.028,7.028,0,0,1,419.866,129.084Z" transform="translate(-395.645 -49.913)" fill="#17171a"/><path d="M432.688,50.408h8.179a5.722,5.722,0,0,1,3.558.99,3.683,3.683,0,0,1,1.422,2.721,9.592,9.592,0,0,1-.6,3.91c-6.234,21.31,14.1,42.62,7.612,63.93a8.436,8.436,0,0,1-2.409,3.91,13.388,13.388,0,0,1-4.276,2.721,12.555,12.555,0,0,1-4.732.99h-8.249C446.166,103.188,419.109,76.8,432.688,50.408Zm13.208,73.53a3.464,3.464,0,0,0,1.38-1.979c6.119-21.31-13.015-42.62-7.166-63.93a2.406,2.406,0,0,0-.057-1.979,1.769,1.769,0,0,0-1.688-.792h-2.673c-8.361,23.158,13.176,46.315,4.918,69.472h2.873A3.968,3.968,0,0,0,445.9,123.938Z" transform="translate(-392.962 -49.913)" fill="#17171a"/><path d="M449.939,50.408h5.33c-18.274,26.389,18.519,52.78.684,79.17h-5.358C467.635,103.188,432.4,76.8,449.939,50.408Z" transform="translate(-390.199 -49.913)" fill="#17171a"/><path d="M462.769,129.206a3.725,3.725,0,0,1-1.346-2.672,8.712,8.712,0,0,1,.512-3.81c7.945-21.772-15.791-43.545-7.968-65.317a9.649,9.649,0,0,1,2.885-3.81,15.756,15.756,0,0,1,4.576-2.672,13.536,13.536,0,0,1,4.781-.941,5.682,5.682,0,0,1,3.561.941,3.22,3.22,0,0,1,1.176,2.672,10.073,10.073,0,0,1-.832,3.81c-8.4,21.772,16.957,43.545,8.509,65.317a9.542,9.542,0,0,1-2.84,3.81,15.206,15.206,0,0,1-4.628,2.672,14.342,14.342,0,0,1-4.946.941A5.416,5.416,0,0,1,462.769,129.206Zm8.864-4.651a3.76,3.76,0,0,0,1.555-1.831c8.339-21.772-16.656-43.545-8.388-65.317a2.192,2.192,0,0,0,.071-1.831c-.249-.494-.789-.743-1.64-.743a4.492,4.492,0,0,0-2.379.743,3.869,3.869,0,0,0-1.632,1.831c-8.068,21.772,16.368,43.545,8.2,65.317a2,2,0,0,0,.083,1.831,1.823,1.823,0,0,0,1.67.741A4.448,4.448,0,0,0,471.633,124.555Z" transform="translate(-388.92 -49.985)" fill="#17171a"/><path d="M473.989,50.408h5.343c-15.255,21.64,10.178,43.28,9.65,64.92,2.588-21.64-20.458-43.28-3.215-64.92h5.348c-21.626,26.389,16.684,52.78-5.09,79.17h-5.343C498.671,103.188,455.953,76.8,473.989,50.408Z" transform="translate(-385.995 -49.913)" fill="#17171a"/><path d="M491.2,50.408h5.351c-18.977,26.389,20.008,52.78.725,79.17h-5.337C511.585,103.188,471.788,76.8,491.2,50.408Z" transform="translate(-383.211 -49.913)" fill="#17171a"/><path d="M503.944,129.206a3.424,3.424,0,0,1-1.239-2.672,9.536,9.536,0,0,1,.787-3.91c3.281-8.247,1.461-16.493-1.387-24.74h5.266c2.785,8.247,4.584,16.493,1.357,24.74a2.209,2.209,0,0,0-.04,1.93,1.668,1.668,0,0,0,1.586.741,4.237,4.237,0,0,0,2.383-.741,3.956,3.956,0,0,0,1.564-1.93c3.233-8.477,1.273-16.956-1.539-25.434a7.235,7.235,0,0,0-2.407-3.661,24.343,24.343,0,0,0-4.409-2.475c-1.637-.725-2.975-1.368-4-1.929a10.887,10.887,0,0,1-2.964-2.475,11.724,11.724,0,0,1-2.255-4.206c-2.6-8.312-4.112-16.626-1.3-24.938a9.075,9.075,0,0,1,2.786-3.91,15.288,15.288,0,0,1,4.519-2.672,13.329,13.329,0,0,1,4.751-.941,6.141,6.141,0,0,1,3.654.941,3.834,3.834,0,0,1,1.539,2.672,9.134,9.134,0,0,1-.358,3.91c-2.118,7.62-1.258,15.24.568,22.86h-5.513c-1.956-7.62-2.89-15.24-.607-22.86a2.176,2.176,0,0,0-.17-1.881,1.973,1.973,0,0,0-1.81-.792,4.086,4.086,0,0,0-2.359.792,3.731,3.731,0,0,0-1.5,1.881c-2.512,7.851-1.374,15.7.84,23.553a7.363,7.363,0,0,0,2.386,3.86,22.3,22.3,0,0,0,4.774,2.672q2.219.991,3.719,1.781a9.282,9.282,0,0,1,2.824,2.424,12.234,12.234,0,0,1,2.088,4.008c2.9,8.94,5.214,17.88,1.918,26.819a9.668,9.668,0,0,1-2.711,3.91,13.954,13.954,0,0,1-4.416,2.672,13.686,13.686,0,0,1-4.869.941A5.449,5.449,0,0,1,503.944,129.206Z" transform="translate(-381.818 -49.985)" fill="#17171a"/><path d="M520.88,129.084a3.931,3.931,0,0,1-1.478-2.672,8.305,8.305,0,0,1,.547-3.86c6.979-24.048-17.777-48.1-3.939-72.144h5.366c-12.812,24.048,10.143,48.1,3.689,72.144a2.22,2.22,0,0,0,.07,1.93,1.758,1.758,0,0,0,1.613.741,3.849,3.849,0,0,0,2.284-.741,3.624,3.624,0,0,0,1.4-1.93c5.844-24.048-15.01-48.1-3.388-72.144h5.369c-10.389,24.048,8.284,48.1,3.066,72.144a8.709,8.709,0,0,1-2.273,3.86,12.38,12.38,0,0,1-4.03,2.672,12,12,0,0,1-4.65.99A5.817,5.817,0,0,1,520.88,129.084Z" transform="translate(-378.754 -49.913)" fill="#17171a"/><path d="M537.756,50.408h5.376c-4.8,26.389,11.1,52.78,6,79.17h-5.309a55.047,55.047,0,0,0,1.909-17.516h-4.256a45.753,45.753,0,0,1-3.948,17.516h-5.315C544.936,103.188,525.725,76.8,537.756,50.408Zm7.441,56.805C542.99,93,538.569,78.777,538.369,64.559c-1.424,14.218,1.737,28.435,2.974,42.654Z" transform="translate(-375.246 -49.913)" fill="#17171a"/><path d="M549.125,50.408h5.382c-2.5,24.773,2.276,49.547.582,74.321h6.5v4.849H549.31C554.327,103.188,544.443,76.8,549.125,50.408Z" transform="translate(-372.572 -49.913)" fill="#17171a"/></g></g></svg>