<svg xmlns="http://www.w3.org/2000/svg" width="156.144" height="84.954" viewBox="0 0 156.144 84.954"><g transform="translate(-53.907 -168.794)"><g transform="translate(55.653 168.794)"><path d="M55.366,169.319h8.615c4.986,0,7.7,3.456,7.02,8.066-1.169,8.485-.425,16.97.625,25.454a6.031,6.031,0,0,1-3.143,6.391,8.525,8.525,0,0,1,4.7,6.7,160.648,160.648,0,0,1,.773,29.121c-.424,4.61-4.959,8.067-9.836,8.067H55.366Zm8.423,37.711a2.545,2.545,0,0,0,2.591-2.933c-.792-8.9-1.429-17.807-.552-26.712a2.452,2.452,0,0,0-2.416-2.933H60.59c-.742,10.859-.254,21.719.251,32.578Zm.8,40.959a3.206,3.206,0,0,0,3.31-2.934,236.59,236.59,0,0,0-.585-29.855,3.164,3.164,0,0,0-3.184-2.932H61.068c.477,11.906.744,23.814.3,35.721Q62.983,247.987,64.589,247.989Z" transform="translate(-55.366 -168.691)" fill="#c9ea50"/><path d="M73.361,169.319H82c4.98,0,6.941,3.456,5.82,8.066-2.5,10.265-.041,20.532,2.324,30.8.73,3.143-.506,5.657-2.849,6.808,4.07,12.71,8.184,25.421,4.915,38.131h-6c2.949-12.292-.253-24.583-3.5-36.873H80.026c1.71,12.292,2.976,24.582-.656,36.873H73.683C81.16,225.188,65.5,197.253,73.361,169.319Zm8.862,41.8a2.273,2.273,0,0,0,2.332-2.933c-2.128-10.267-4.39-20.532-2.1-30.8.36-1.677-.472-2.933-2.08-2.933h-2.9c-3.226,12.221-.427,24.443,1.71,36.664Z" transform="translate(-52.273 -168.691)" fill="#c9ea50"/><path d="M95.782,169.319h5.638c-13.093,27.934,19.739,55.869,6.807,83.8h-5.67c2.881-6.216,3.409-12.432,2.957-18.646h-5.182a42.043,42.043,0,0,1-4.6,18.646H90.053C105.16,225.188,80.252,197.253,95.782,169.319Zm9.157,60.024c-2.184-14.981-10.528-29.96-10.584-44.939-1.352,14.979,5.431,29.959,5.868,44.939Z" transform="translate(-48.542 -168.691)" fill="#c9ea50"/><path d="M107.953,169.319h5.334c-9.823,21.055,8.56,42.112,12.5,63.167-1.819-21.056-18.039-42.112-6.116-63.167h5.657c-15.948,27.934,17.318,55.869,1.2,83.8h-5.238c9.683-21.126-8.408-42.25-12.514-63.376,2.07,21.125,17.606,42.25,6.016,63.376H109.13C124.552,225.188,92.421,197.253,107.953,169.319Z" transform="translate(-45.879 -168.691)" fill="#c9ea50"/><path d="M126.263,169.319h8.707c4.806,0,6.692,3.456,5.724,8.066-5.613,22.557,12.222,45.114,6.711,67.67-1.228,4.61-6.872,8.067-11.787,8.067h-8.685C143.141,225.188,110.3,197.253,126.263,169.319Zm11.754,78.67a4.192,4.192,0,0,0,3.855-2.934c5.784-22.556-12.867-45.113-7.019-67.67a2.2,2.2,0,0,0-2.256-2.933h-2.982c-8.969,24.513,14.491,49.024,5.395,73.537Q136.516,247.987,138.017,247.989Z" transform="translate(-42.306 -168.691)" fill="#c9ea50"/><path d="M143.964,169.319h5.678c-12.77,27.934,13.871,55.869.546,83.8h-5.639C158.822,225.188,130.2,197.253,143.964,169.319Z" transform="translate(-38.695 -168.691)" fill="#c9ea50"/><path d="M151.945,169.319h5.37c-4.6,21.055,6.959,42.112,10.648,63.167-2.052-21.056-10.051-42.112-4.222-63.167h5.694c-7.331,27.934,8.671,55.869.848,83.8h-5.209c5.856-21.126-7.39-42.25-10.471-63.376.431,21.125,12.937,42.25,4.009,63.376h-5.633C165.3,225.188,140.191,197.253,151.945,169.319Z" transform="translate(-37.001 -168.691)" fill="#c9ea50"/><path d="M171.76,246c2.73-23.081-5.558-46.161-2.773-69.242.452-4.5,5.111-7.961,9.95-7.961a8.29,8.29,0,0,1,8.589,7.961v30.274H181.7c-.367-10.056-.545-20.112-.268-30.168a2.832,2.832,0,0,0-2.983-2.933,3.253,3.253,0,0,0-3.425,2.933c-1.934,23.045,3.853,46.092,1.947,69.137a2.456,2.456,0,0,0,2.517,2.933A2.97,2.97,0,0,0,182.418,246c.46-8.241.254-16.481-.108-24.722H179.1c-.127-1.921-.264-3.84-.4-5.761h8.821v37.711h-5.613q.118-1.415.224-2.829a6.1,6.1,0,0,1-5.61,3.352C172.885,253.748,171.022,250.606,171.76,246Z" transform="translate(-33.128 -168.794)" fill="#c9ea50"/></g><g transform="translate(53.907 168.794)"><path d="M53.907,169.319h8.615c4.987,0,7.7,3.456,7.02,8.066-1.169,8.485-.425,16.97.625,25.454a6.029,6.029,0,0,1-3.143,6.391,8.52,8.52,0,0,1,4.7,6.7,160.645,160.645,0,0,1,.773,29.121c-.425,4.61-4.959,8.067-9.836,8.067H53.907ZM62.33,207.03a2.546,2.546,0,0,0,2.592-2.933c-.792-8.9-1.43-17.807-.553-26.712a2.451,2.451,0,0,0-2.416-2.933H59.131c-.742,10.859-.254,21.719.251,32.578Zm.8,40.959a3.206,3.206,0,0,0,3.31-2.934,236.59,236.59,0,0,0-.585-29.855,3.164,3.164,0,0,0-3.184-2.932H59.609c.476,11.906.744,23.814.3,35.721Q61.524,247.987,63.13,247.989Z" transform="translate(-53.907 -168.691)" fill="#161719"/><path d="M71.9,169.319H80.54c4.981,0,6.941,3.456,5.82,8.066-2.5,10.265-.041,20.532,2.324,30.8.73,3.143-.506,5.657-2.849,6.808,4.07,12.71,8.184,25.421,4.915,38.131h-6c2.949-12.292-.253-24.583-3.5-36.873H78.567c1.71,12.292,2.976,24.582-.656,36.873H72.223C79.7,225.188,64.041,197.253,71.9,169.319Zm8.862,41.8a2.273,2.273,0,0,0,2.334-2.933c-2.13-10.267-4.39-20.532-2.1-30.8.36-1.677-.471-2.933-2.08-2.933h-2.9c-3.226,12.221-.428,24.443,1.71,36.664Z" transform="translate(-50.814 -168.691)" fill="#161719"/><path d="M94.323,169.319H99.96c-13.093,27.934,19.739,55.869,6.807,83.8H101.1c2.879-6.216,3.408-12.432,2.956-18.646H98.873a42.043,42.043,0,0,1-4.6,18.646H88.594C103.7,225.188,78.793,197.253,94.323,169.319Zm9.157,60.024C101.3,214.363,92.952,199.383,92.9,184.4c-1.352,14.979,5.431,29.959,5.868,44.939Z" transform="translate(-47.083 -168.691)" fill="#161719"/><path d="M106.494,169.319h5.335c-9.824,21.055,8.559,42.112,12.5,63.167-1.819-21.056-18.038-42.112-6.115-63.167h5.656c-15.948,27.934,17.319,55.869,1.2,83.8h-5.238c9.683-21.126-8.408-42.25-12.514-63.376,2.07,21.125,17.606,42.25,6.016,63.376h-5.663C123.092,225.188,90.962,197.253,106.494,169.319Z" transform="translate(-44.42 -168.691)" fill="#161719"/><path d="M124.8,169.319h8.707c4.807,0,6.693,3.456,5.724,8.066-5.613,22.557,12.221,45.114,6.711,67.67-1.228,4.61-6.873,8.067-11.787,8.067h-8.685C141.682,225.188,108.837,197.253,124.8,169.319Zm11.755,78.67a4.192,4.192,0,0,0,3.853-2.934c5.784-22.556-12.866-45.113-7.019-67.67a2.2,2.2,0,0,0-2.255-2.933h-2.982c-8.971,24.513,14.49,49.024,5.394,73.537Q135.059,247.987,136.56,247.989Z" transform="translate(-40.847 -168.691)" fill="#161719"/><path d="M142.5,169.319h5.678c-12.77,27.934,13.872,55.869.546,83.8H143.09C157.363,225.188,128.747,197.253,142.5,169.319Z" transform="translate(-37.236 -168.691)" fill="#161719"/><path d="M150.486,169.319h5.37c-4.6,21.055,6.959,42.112,10.648,63.167-2.052-21.056-10.051-42.112-4.222-63.167h5.694c-7.33,27.934,8.671,55.869.848,83.8h-5.209c5.856-21.126-7.39-42.25-10.471-63.376.431,21.125,12.938,42.25,4.009,63.376H151.52C163.84,225.188,138.731,197.253,150.486,169.319Z" transform="translate(-35.542 -168.691)" fill="#161719"/><path d="M170.3,246c2.73-23.081-5.558-46.161-2.772-69.242.451-4.5,5.111-7.961,9.948-7.961a8.291,8.291,0,0,1,8.59,7.961v30.274h-5.827c-.367-10.056-.545-20.112-.268-30.168a2.832,2.832,0,0,0-2.983-2.933,3.253,3.253,0,0,0-3.425,2.933c-1.933,23.045,3.852,46.092,1.948,69.137a2.454,2.454,0,0,0,2.516,2.933A2.97,2.97,0,0,0,180.959,246c.46-8.241.254-16.481-.108-24.722h-3.207c-.127-1.921-.263-3.84-.4-5.761h8.822v37.711h-5.613q.117-1.415.223-2.829a6.1,6.1,0,0,1-5.609,3.352C171.426,253.748,169.563,250.606,170.3,246Z" transform="translate(-31.669 -168.794)" fill="#161719"/></g></g></svg>