<svg xmlns="http://www.w3.org/2000/svg" width="982.998" height="538.256" viewBox="0 0 982.998 538.256"><g transform="translate(12.099)"><path d="M372.178,2871.373h53.6c10.467,0,19.542,2.2,26.948,6.589a35.586,35.586,0,0,1,15.495,18.114c3.01,7.689,3.636,16.359,2.354,26.017-7.439,53.354-2.8,106.71,3.8,160.067a44.859,44.859,0,0,1-3.395,24.371,29.693,29.693,0,0,1-16.351,15.811,59.68,59.68,0,0,1,20.165,17.126,49.018,49.018,0,0,1,9.35,24.373c6.363,61.261,9.786,122.521,4.964,183.78a49.014,49.014,0,0,1-10.175,26.015,61.413,61.413,0,0,1-22.728,18.114,67.569,67.569,0,0,1-29.611,6.588H372.178Zm65.29,231.863c3.107-3.5,4.392-7.9,3.935-13.172-4.986-55.988-8.965-111.976-3.379-167.97.5-5.269-.626-9.654-3.5-13.173s-7-5.262-12.313-5.269q-8.59,0-17.146,0c-4.712,68.284-1.658,136.575,1.524,204.856h17.882C430.006,3108.51,434.364,3106.757,437.469,3103.235Zm7.044,257.556A18.388,18.388,0,0,0,451,3347.619c3.3-62.577.907-125.152-3.706-187.73a20.535,20.535,0,0,0-20.687-18.445H408.025c3.015,74.875,4.7,149.746,1.926,224.617q9.772,0,19.533,0C435.513,3366.061,440.516,3364.316,444.512,3360.791Z" transform="translate(-372.178 -2868.08)" fill="#c9ea50"/><path d="M441.16,2871.373h53.724q15.743,0,25.589,6.589a29.172,29.172,0,0,1,12.421,18.114c1.866,7.689,1.421,16.359-.86,26.017-15.991,64.773-.4,129.547,14.542,194.32,2.13,9.221,1.509,17.567-1.932,25.031a40.2,40.2,0,0,1-15.985,17.783c25.555,79.7,51.357,159.407,30.838,239.109h-37.7c18.343-77.285-2.1-154.574-22.749-231.86H482.852c10.781,77.283,18.784,154.576-4.082,231.86H443c19.946-87.825,11.76-175.651-1.383-263.479C429.609,3047.032,412.634,2959.2,441.16,2871.373Zm67.6,257.554c2.8-3.507,3.676-7.676,2.681-12.514-13.453-64.773-27.764-129.546-13.161-194.32,1.133-5.269.571-9.654-1.864-13.173s-6.354-5.262-11.811-5.269q-8.82,0-17.6,0c-20.488,76.849-2.94,153.7,10.542,230.545q9.218,0,18.433,0C501.682,3134.2,505.961,3132.447,508.756,3128.927Z" transform="translate(-308.377 -2868.08)" fill="#c9ea50"/><path d="M527.113,2871.373h35.473c-44.976,87.829-9.731,175.656,20.789,263.482,31.573,87.827,58.422,175.655,21,263.481H568.731c18.424-38.863,22.236-77.729,19.919-116.589H555.373c-1.484,38.864-8.414,77.726-28.917,116.589H490.763c43.16-87.827,32.522-175.655,18.211-263.481C493.176,3047.032,473.443,2959.2,527.113,2871.373Zm57.28,378.1c-13.633-94.638-66.634-189.262-66.483-283.9-9,94.634,34.182,189.265,36.819,283.9Z" transform="translate(-230.389 -2868.08)" fill="#c9ea50"/><path d="M564.577,2871.373H598.13c-64.808,138.112,63.927,276.218,81.642,414.326q-1.423-7.247-3.252-14.492c-10.348-133.278-114.416-266.555-38.236-399.834h35.572c-100.981,175.656,109.095,351.309,7.828,526.964H648.093c64.541-140.522-67.023-281.045-82.028-421.569q1.133,10.871,3.211,21.739c12.484,133.277,111.573,266.552,38.61,399.83H572.271C669.059,3222.686,466.328,3047.032,564.577,2871.373Z" transform="translate(-175.192 -2868.08)" fill="#c9ea50"/><path d="M628.145,2871.373h54.736c10.129,0,18.1,2.2,24.341,6.589s10.061,10.44,11.958,18.114c1.886,7.689,1.646,16.359-.549,26.017-15.389,70.921.534,141.843,20.255,212.765,18.938,70.921,41.676,141.841,21.869,212.761-2.622,9.662-7.924,18.336-15.581,26.015a84.306,84.306,0,0,1-27.494,18.114,80.708,80.708,0,0,1-31.076,6.588H631.994C734.034,3222.686,526.832,3047.032,628.145,2871.373Zm88.493,489.418a24.53,24.53,0,0,0,9.319-13.172c36.382-141.84-81.28-283.683-44.039-425.526,1.286-5.269.738-9.654-1.743-13.173-2.5-3.508-6.554-5.262-12.364-5.269q-9.393,0-18.749,0c-57.02,154.136,90.982,308.274,33.737,462.41q9.147,0,18.264,0A25.471,25.471,0,0,0,716.637,3360.791Z" transform="translate(-100.484 -2868.08)" fill="#c9ea50"/><path d="M686.325,2871.373h35.686c-36.867,87.829-19.967,175.656,2.04,263.482,20.841,87.827,46.792,175.655,1.091,263.481H689.686c48.285-87.825,21.231-175.651-1.254-263.479C664.9,3047.032,645.944,2959.2,686.325,2871.373Z" transform="translate(-24.702 -2868.08)" fill="#c9ea50"/><path d="M711.618,2871.373h33.734c-16.9,69.057-1.113,138.108,16.125,207.162,17.893,69.057,45.385,138.11,53.572,207.164q-1.267-7.247-2.81-14.492c-12.324-133.278-64.024-266.555-26.513-399.834h35.763C802.1,2959.2,810.8,3047.029,824.8,3134.855c12.794,87.827,30.878,175.655,2.509,263.481H793.9c17.87-70.262,7.079-140.522-15.328-210.785-21.329-70.261-45.8-140.523-53.775-210.785.87,7.247,1.934,14.493,3.133,21.739,2.446,133.277,82.147,266.552,25.985,399.83H718.5c42.735-87.825,17.083-175.651-2.984-263.479C694.18,3047.032,678.43,2959.2,711.618,2871.373Z" transform="translate(10.806 -2868.08)" fill="#c9ea50"/><path d="M790.845,3397.5c-4.886-3.949-8.175-9.766-10.066-17.457-1.9-7.673-2-16.138-.654-25.358,11.4-72.567-1.1-145.136-9.355-217.7-9.146-72.566-14.042-145.135-8.032-217.7a47.176,47.176,0,0,1,10.664-25.361,63.1,63.1,0,0,1,22.742-17.785,66.13,66.13,0,0,1,28.437-6.258,60.589,60.589,0,0,1,27.95,6.258,48.153,48.153,0,0,1,19.479,17.785,47.365,47.365,0,0,1,7.245,25.361v190.364H842.6c-2.3-63.234-3.414-126.472-1.654-189.707a16.249,16.249,0,0,0-5.146-12.515c-3.574-3.511-8.324-5.269-14.329-5.269a20.958,20.958,0,0,0-14.307,5.269,17.793,17.793,0,0,0-6.492,12.515c-3.973,72.457-.782,144.916,5.642,217.371,5.742,72.461,14.718,144.917,6.571,217.375-.546,5.268.556,9.553,3.463,12.847,2.885,3.3,7.048,4.941,12.418,4.938s9.734-1.642,13.032-4.938a18.9,18.9,0,0,0,5.334-12.847c2.893-51.818,1.587-103.636-.69-155.452H826.274c-.8-12.078-1.669-24.155-2.511-36.23h55.493v237.132H843.963q.738-8.894,1.4-17.784a42.17,42.17,0,0,1-14.184,15.149,38.008,38.008,0,0,1-21.089,5.93C802.179,3403.426,795.7,3401.446,790.845,3397.5Z" transform="translate(91.643 -2869.873)" fill="#c9ea50"/></g><path d="M363.178,2871.373h53.6c10.467,0,19.541,2.2,26.948,6.589a35.587,35.587,0,0,1,15.5,18.114c3.01,7.689,3.636,16.359,2.354,26.017-7.439,53.354-2.8,106.71,3.8,160.067a44.864,44.864,0,0,1-3.394,24.371,29.694,29.694,0,0,1-16.351,15.811,59.685,59.685,0,0,1,20.165,17.126,49.018,49.018,0,0,1,9.349,24.373c6.363,61.261,9.786,122.521,4.964,183.78a49.013,49.013,0,0,1-10.175,26.015,61.419,61.419,0,0,1-22.728,18.114,67.571,67.571,0,0,1-29.611,6.588H363.178Zm65.291,231.863c3.107-3.5,4.391-7.9,3.935-13.172-4.986-55.988-8.965-111.976-3.379-167.97.5-5.269-.625-9.654-3.5-13.173s-7-5.262-12.313-5.269q-8.589,0-17.146,0c-4.712,68.284-1.657,136.575,1.524,204.856h17.881C421.006,3108.51,425.364,3106.757,428.469,3103.235Zm7.044,257.556A18.391,18.391,0,0,0,442,3347.619c3.3-62.577.907-125.152-3.706-187.73a20.536,20.536,0,0,0-20.688-18.445H399.025c3.015,74.875,4.7,149.746,1.926,224.617q9.772,0,19.533,0C426.513,3366.061,431.516,3364.316,435.513,3360.791Z" transform="translate(-363.178 -2868.08)" fill="#161719"/><path d="M432.16,2871.373h53.724q15.743,0,25.588,6.589a29.173,29.173,0,0,1,12.421,18.114c1.866,7.689,1.421,16.359-.861,26.017-15.991,64.773-.4,129.547,14.542,194.32,2.13,9.221,1.508,17.567-1.933,25.031a40.2,40.2,0,0,1-15.984,17.783c25.555,79.7,51.356,159.407,30.838,239.109h-37.7c18.343-77.285-2.1-154.574-22.749-231.86H473.852c10.781,77.283,18.784,154.576-4.082,231.86H434c19.946-87.825,11.76-175.651-1.383-263.479C420.609,3047.032,403.634,2959.2,432.16,2871.373Zm67.6,257.554c2.8-3.507,3.676-7.676,2.681-12.514-13.453-64.773-27.765-129.546-13.161-194.32,1.133-5.269.571-9.654-1.864-13.173s-6.354-5.262-11.81-5.269q-8.82,0-17.6,0c-20.488,76.849-2.94,153.7,10.541,230.545q9.218,0,18.433,0C492.682,3134.2,496.961,3132.447,499.756,3128.927Z" transform="translate(-299.377 -2868.08)" fill="#161719"/><path d="M518.112,2871.373h35.473c-44.976,87.829-9.731,175.656,20.789,263.482,31.574,87.827,58.423,175.655,21,263.481H559.732c18.424-38.863,22.236-77.729,19.919-116.589H546.373c-1.485,38.864-8.414,77.726-28.917,116.589H481.763c43.161-87.827,32.522-175.655,18.211-263.481C484.176,3047.032,464.444,2959.2,518.112,2871.373Zm57.282,378.1c-13.633-94.638-66.635-189.262-66.483-283.9-9,94.634,34.182,189.265,36.819,283.9Z" transform="translate(-221.389 -2868.08)" fill="#161719"/><path d="M555.578,2871.373H589.13c-64.807,138.112,63.927,276.218,81.642,414.326q-1.423-7.247-3.252-14.492c-10.348-133.278-114.417-266.555-38.236-399.834h35.572c-100.981,175.656,109.094,351.309,7.828,526.964H639.092c64.542-140.522-67.023-281.045-82.028-421.569q1.133,10.871,3.21,21.739c12.485,133.277,111.574,266.552,38.611,399.83H563.271C660.059,3222.686,457.328,3047.032,555.578,2871.373Z" transform="translate(-166.192 -2868.08)" fill="#161719"/><path d="M619.145,2871.373h54.736c10.129,0,18.1,2.2,24.341,6.589s10.061,10.44,11.958,18.114c1.887,7.689,1.647,16.359-.548,26.017-15.39,70.921.534,141.843,20.255,212.765,18.938,70.921,41.676,141.841,21.869,212.761-2.622,9.662-7.924,18.336-15.58,26.015a84.309,84.309,0,0,1-27.495,18.114,80.7,80.7,0,0,1-31.075,6.588H622.994C725.033,3222.686,517.832,3047.032,619.145,2871.373Zm88.492,489.418a24.525,24.525,0,0,0,9.318-13.172c36.382-141.84-81.28-283.683-44.039-425.526,1.286-5.269.738-9.654-1.743-13.173-2.5-3.508-6.554-5.262-12.364-5.269q-9.394,0-18.749,0c-57.019,154.136,90.982,308.274,33.736,462.41q9.146,0,18.265,0A25.472,25.472,0,0,0,707.637,3360.791Z" transform="translate(-91.484 -2868.08)" fill="#161719"/><path d="M677.325,2871.373h35.686c-36.868,87.829-19.968,175.656,2.04,263.482,20.842,87.827,46.792,175.655,1.091,263.481H680.686c48.285-87.825,21.231-175.651-1.253-263.479C655.9,3047.032,636.944,2959.2,677.325,2871.373Z" transform="translate(-15.701 -2868.08)" fill="#161719"/><path d="M702.617,2871.373h33.735c-16.9,69.057-1.113,138.108,16.125,207.162,17.893,69.057,45.385,138.11,53.572,207.164q-1.267-7.247-2.81-14.492c-12.324-133.278-64.024-266.555-26.513-399.834H812.49C793.1,2959.2,801.8,3047.029,815.8,3134.855c12.794,87.827,30.877,175.655,2.509,263.481H784.9c17.87-70.262,7.078-140.522-15.328-210.785-21.329-70.261-45.8-140.523-53.775-210.785.87,7.247,1.935,14.493,3.133,21.739,2.446,133.277,82.147,266.552,25.986,399.83H709.5c42.735-87.825,17.082-175.651-2.984-263.479C685.18,3047.032,669.431,2959.2,702.617,2871.373Z" transform="translate(19.806 -2868.08)" fill="#161719"/><path d="M702.617,2871.373h33.735c-16.9,69.057-1.113,138.108,16.125,207.162,17.893,69.057,45.385,138.11,53.572,207.164q-1.267-7.247-2.81-14.492c-12.324-133.278-64.024-266.555-26.513-399.834H812.49C793.1,2959.2,801.8,3047.029,815.8,3134.855c12.794,87.827,30.877,175.655,2.509,263.481H784.9c17.87-70.262,7.078-140.522-15.328-210.785-21.329-70.261-45.8-140.523-53.775-210.785.87,7.247,1.935,14.493,3.133,21.739,2.446,133.277,82.147,266.552,25.986,399.83H709.5c42.735-87.825,17.082-175.651-2.984-263.479C685.18,3047.032,669.431,2959.2,702.617,2871.373Z" transform="translate(3.806 -2860.08)" fill="#161719"/><path d="M781.845,3397.5c-4.886-3.949-8.175-9.766-10.065-17.457-1.9-7.673-2-16.138-.654-25.358,11.4-72.567-1.1-145.136-9.356-217.7-9.145-72.566-14.041-145.135-8.032-217.7a47.179,47.179,0,0,1,10.665-25.361,63.091,63.091,0,0,1,22.743-17.785,66.126,66.126,0,0,1,28.436-6.258,60.591,60.591,0,0,1,27.951,6.258,48.151,48.151,0,0,1,19.478,17.785,47.358,47.358,0,0,1,7.246,25.361v190.364H833.6c-2.3-63.234-3.414-126.472-1.653-189.707a16.253,16.253,0,0,0-5.146-12.515c-3.575-3.511-8.324-5.269-14.329-5.269a20.956,20.956,0,0,0-14.307,5.269,17.8,17.8,0,0,0-6.493,12.515c-3.972,72.457-.782,144.916,5.643,217.371,5.742,72.461,14.718,144.917,6.572,217.375-.546,5.268.555,9.553,3.463,12.847,2.885,3.3,7.048,4.941,12.419,4.938s9.733-1.642,13.031-4.938a18.894,18.894,0,0,0,5.333-12.847c2.894-51.818,1.588-103.636-.689-155.452H817.274c-.8-12.078-1.668-24.155-2.511-36.23h55.493v237.132H834.963q.739-8.894,1.4-17.784a42.163,42.163,0,0,1-14.184,15.149,38.01,38.01,0,0,1-21.09,5.93C793.179,3403.426,786.7,3401.446,781.845,3397.5Z" transform="translate(100.643 -2869.873)" fill="#161719"/></svg>