<svg xmlns="http://www.w3.org/2000/svg" width="109.127" height="81.29" viewBox="0 0 109.127 81.29"><g transform="translate(-372.976 -168.706)"><g transform="translate(375.127 168.706)"><path d="M374.857,169.145h8.413a10.425,10.425,0,0,1,4.464,1,9.674,9.674,0,0,1,3.559,2.76,7.253,7.253,0,0,1,1.579,3.964c3.206,21.61-6.409,43.221-3.6,64.831a8.165,8.165,0,0,1-.093,3.964,4.828,4.828,0,0,1-2.146,2.76,7.36,7.36,0,0,1-3.934,1h-8.245Q374.859,209.288,374.857,169.145Zm9.162,74.566a2.625,2.625,0,0,0,.419-2.007c-1.988-21.61,4.869-43.221,2.56-64.831a2.77,2.77,0,0,0-.99-2.007,3.405,3.405,0,0,0-2.316-.8H380.68c1.613,23.483-2.668,46.968-.987,70.451h2.54A2.085,2.085,0,0,0,384.019,243.711Z" transform="translate(-374.857 -168.643)" fill="#c9ea50"/><path d="M393.231,169.145h5.452c10.577,26.762-11.885,53.524-.427,80.287H392.87C383.147,222.669,402.067,195.907,393.231,169.145Z" transform="translate(-372.68 -168.643)" fill="#c9ea50"/><path d="M403.7,249.093a10.909,10.909,0,0,1-3.248-2.659,10.328,10.328,0,0,1-2.1-3.865c-5.069-22.112,10.449-44.224,5.193-66.336a7.77,7.77,0,0,1,.237-3.865,5.055,5.055,0,0,1,1.982-2.709,6.511,6.511,0,0,1,3.7-.954,13.11,13.11,0,0,1,4.831.954,12.65,12.65,0,0,1,4.236,2.709,8.437,8.437,0,0,1,2.357,3.865c2.41,9.668.7,19.335-1.928,29h-5.475c2.456-9.634,3.891-19.268,1.8-28.9a3.347,3.347,0,0,0-1.336-1.908,3.95,3.95,0,0,0-2.421-.8,2.178,2.178,0,0,0-1.848.8,2.251,2.251,0,0,0-.392,1.908c5.683,22.078-11.342,44.157-5.742,66.235a3.651,3.651,0,0,0,1.434,1.957,3.977,3.977,0,0,0,2.348.753,1.853,1.853,0,0,0,1.729-.753,2.356,2.356,0,0,0,.071-1.957c-2.468-7.895-1.4-15.79.615-23.685H406.5c.459-1.84.958-3.68,1.465-5.519h8.662c-3.543,12.043-6.091,24.086.881,36.129H412.1q-.738-1.355-1.356-2.711a3.487,3.487,0,0,1-.857,2.309,3.4,3.4,0,0,1-2.628.9A7.638,7.638,0,0,1,403.7,249.093Z" transform="translate(-371.63 -168.706)" fill="#c9ea50"/><path d="M419.422,169.145h5.42c15.092,26.762-15.592,53.524-.582,80.287h-5.419C403.76,222.669,434.35,195.907,419.422,169.145Z" transform="translate(-369.156 -168.643)" fill="#c9ea50"/><path d="M434.1,174.063h-5.692a34.619,34.619,0,0,0-2.319-4.918H442.9a48.214,48.214,0,0,1,2.088,4.918h-5.559c8.237,25.122-15.137,50.246-2.759,75.369H431.24C418,224.308,442.834,199.186,434.1,174.063Z" transform="translate(-367.496 -168.643)" fill="#c9ea50"/><path d="M446.337,169.145h5.387c6.927,13.381,3.9,26.762,2.892,40.143a109.161,109.161,0,0,0,2.6,40.143h-5.459c-2.216-5.921-2.5-11.843-2.783-17.764h-5.286c-.316,5.921-.52,11.843,1.607,17.764h-5.445C430.047,222.669,456.859,195.907,446.337,169.145Zm2.442,57.605c-.774-14.417,4.878-28.836,3.773-43.254-.1,14.418-7.4,28.837-8.471,43.254Z" transform="translate(-365.834 -168.643)" fill="#c9ea50"/><path d="M457.762,169.145h5.371c3.894,25.123-2.975,50.246-.6,75.369h7.651v4.918H457.521C451.663,222.669,464.357,195.907,457.762,169.145Z" transform="translate(-363.208 -168.643)" fill="#c9ea50"/></g><g transform="translate(372.976 168.706)"><path d="M372.976,169.145h8.412a10.418,10.418,0,0,1,4.464,1,9.688,9.688,0,0,1,3.56,2.76,7.253,7.253,0,0,1,1.579,3.964c3.206,21.61-6.41,43.221-3.6,64.831a8.167,8.167,0,0,1-.091,3.964,4.828,4.828,0,0,1-2.146,2.76,7.36,7.36,0,0,1-3.934,1h-8.245Zm9.162,74.566a2.629,2.629,0,0,0,.417-2.007c-1.988-21.61,4.869-43.221,2.561-64.831a2.767,2.767,0,0,0-.992-2.007,3.4,3.4,0,0,0-2.315-.8H378.8c1.611,23.483-2.669,46.968-.987,70.451h2.539A2.088,2.088,0,0,0,382.138,243.711Z" transform="translate(-372.976 -168.643)" fill="#161719"/><path d="M391.349,169.145H396.8c10.577,26.762-11.886,53.524-.428,80.287h-5.386C381.266,222.669,400.185,195.907,391.349,169.145Z" transform="translate(-370.799 -168.643)" fill="#161719"/><path d="M401.818,249.093a10.923,10.923,0,0,1-3.248-2.659,10.36,10.36,0,0,1-2.1-3.865c-5.068-22.112,10.45-44.224,5.195-66.336a7.77,7.77,0,0,1,.237-3.865,5.053,5.053,0,0,1,1.981-2.709,6.518,6.518,0,0,1,3.7-.954,13.114,13.114,0,0,1,4.831.954,12.673,12.673,0,0,1,4.236,2.709,8.434,8.434,0,0,1,2.356,3.865c2.411,9.668.7,19.335-1.927,29H411.6c2.457-9.634,3.892-19.268,1.806-28.9a3.353,3.353,0,0,0-1.336-1.908,3.951,3.951,0,0,0-2.422-.8,2.175,2.175,0,0,0-1.847.8,2.247,2.247,0,0,0-.392,1.908c5.683,22.078-11.342,44.157-5.742,66.235a3.655,3.655,0,0,0,1.433,1.957,3.98,3.98,0,0,0,2.349.753,1.852,1.852,0,0,0,1.728-.753,2.352,2.352,0,0,0,.071-1.957c-2.467-7.895-1.4-15.79.615-23.685h-3.249c.459-1.84.96-3.68,1.465-5.519h8.662c-3.542,12.043-6.09,24.086.881,36.129h-5.409q-.738-1.355-1.356-2.711a3.482,3.482,0,0,1-.857,2.309,3.4,3.4,0,0,1-2.628.9A7.638,7.638,0,0,1,401.818,249.093Z" transform="translate(-369.749 -168.706)" fill="#161719"/><path d="M417.54,169.145h5.421c15.091,26.762-15.592,53.524-.583,80.287h-5.419C401.878,222.669,432.468,195.907,417.54,169.145Z" transform="translate(-367.275 -168.643)" fill="#161719"/><path d="M432.22,174.063h-5.692a34.749,34.749,0,0,0-2.321-4.918h16.817a48.47,48.47,0,0,1,2.087,4.918h-5.559c8.237,25.122-15.137,50.246-2.759,75.369h-5.435C416.118,224.308,440.953,199.186,432.22,174.063Z" transform="translate(-365.615 -168.643)" fill="#161719"/><path d="M444.455,169.145h5.388c6.926,13.381,3.9,26.762,2.891,40.143a109.161,109.161,0,0,0,2.6,40.143h-5.458c-2.218-5.921-2.5-11.843-2.783-17.764h-5.286c-.316,5.921-.52,11.843,1.607,17.764h-5.445C428.166,222.669,454.978,195.907,444.455,169.145ZM446.9,226.75c-.773-14.417,4.878-28.836,3.774-43.254-.1,14.418-7.4,28.837-8.472,43.254Z" transform="translate(-363.953 -168.643)" fill="#161719"/><path d="M455.881,169.145h5.37c3.9,25.123-2.974,50.246-.6,75.369H468.3v4.918H455.639C449.782,222.669,462.475,195.907,455.881,169.145Z" transform="translate(-361.327 -168.643)" fill="#161719"/></g></g></svg>