<svg xmlns="http://www.w3.org/2000/svg" width="111.092" height="82.696" viewBox="0 0 111.092 82.696"><g transform="translate(524.404 -1744.682)"><path d="M-515.654,1746.181h6.623c19.534,20.589-3.242,41.177,1.471,61.767-.779-20.588,24.774-41.178,9.428-61.767h6.618c5.282,6.806,6.79,13.613,5.855,20.419-.831,6.806-4.107,13.612-5.993,20.418-2.439,6.806-3.162,13.613-3.432,20.419-.135,6.806.184,13.613,2.939,20.419h-5.528c-8.331-20.486,1.078-40.974,7.1-61.46-7.553,20.488-19.432,40.974-12.422,61.46h-2.763c-5.473-10.243-5.993-20.487-5.233-30.73.86-10.244,5.973-20.487,6.807-30.731-5.612,20.488-16.832,40.974-6.691,61.46H-516.4c-3.664-6.806-4.233-13.612-3.939-20.418a63.434,63.434,0,0,1,4.466-20.419C-510.719,1773.406-503.393,1759.793-515.654,1746.181Z" transform="translate(-2.639 -0.989)" fill="#c9ea50"/><path d="M-425.4,1746.181h5.5c10.83,13.611,6.011,27.225,2.672,40.837-1.486,6.806-1.206,13.612-.806,20.419.633,6.806.405,13.613,3.528,20.419h-5.53c-3.019-6.023-2.51-12.048-2.954-18.071h-5.123c-.128,6.023-1.176,12.048,1.523,18.071h-5.529c-2.867-6.806-1.563-13.613-1.089-20.419.736-6.806,1.646-13.613,4.461-20.419,2.375-6.806,6.222-13.613,7.484-20.419C-419.783,1759.793-421.5,1752.987-425.4,1746.181Zm2.144,58.6c-.715-7.334.716-14.668,2.724-22,1.908-7.333,4.393-14.667,3.457-22-.1,14.668-11.18,29.335-10.754,44Z" transform="translate(-59.688 -0.989)" fill="#c9ea50"/><path d="M-371.492,1746.181h8.342a11.885,11.885,0,0,1,4.791,1.021,12.394,12.394,0,0,1,4.053,2.808,9.453,9.453,0,0,1,2.333,4.033c3.028,10.039-.167,20.078-2.36,30.118a8.637,8.637,0,0,1-1.923,3.879,11.182,11.182,0,0,1-3.488,2.757c.788,12.355,1.974,24.707,5.8,37.06h-5.841c-3.829-11.98-4.34-23.959-4.89-35.937h-2.49a156.228,156.228,0,0,0-.98,17.969c0,5.99-.068,11.979,1.7,17.968h-5.532c-1.865-6.806-1.988-13.612-1.971-20.418.147-6.807.435-13.613,2.388-20.419,1.416-6.806,4.182-13.613,4.875-20.419A30.336,30.336,0,0,0-371.492,1746.181Zm10.46,39.919a3.5,3.5,0,0,0,1.248-1.94c2.431-10.039,5.912-20.079,2.6-30.118a3.944,3.944,0,0,0-1.452-2.042,3.856,3.856,0,0,0-2.368-.816h-2.757c5.629,11.91.431,23.822-2.443,35.733h2.857A3.525,3.525,0,0,0-361.032,1786.1Z" transform="translate(-99.251 -0.989)" fill="#c9ea50"/><path d="M-306.4,1826.357a10,10,0,0,1-3.582-2.757,6.565,6.565,0,0,1-1.477-3.981c.2-11.2-.826-22.393,1.26-33.59,1.785-11.2,5.991-22.393,2.508-33.588a7.322,7.322,0,0,1-.151-3.982,4.779,4.779,0,0,1,2.041-2.756,7.217,7.217,0,0,1,4.021-1.021,10.553,10.553,0,0,1,4.531,1.021,10.09,10.09,0,0,1,3.587,2.756,8.354,8.354,0,0,1,1.784,3.982c1.805,9.833.179,19.67-1.08,29.5h-5.4c1.554-9.834,3.543-19.671,1.331-29.5a3.306,3.306,0,0,0-1.248-1.94,3.482,3.482,0,0,0-2.2-.816,1.94,1.94,0,0,0-1.732.816,2.323,2.323,0,0,0-.279,1.94c3.076,11.2-.65,22.393-2.2,33.589-1.819,11.2-.825,22.393-1.07,33.589a2.607,2.607,0,0,0,.929,1.99,3.2,3.2,0,0,0,2.152.766,3.035,3.035,0,0,0,2.1-.766,2.485,2.485,0,0,0,.828-1.99c.172-9.8-.356-19.6.392-29.4h5.6c-.586,9.8-.124,19.6-.3,29.4A7.9,7.9,0,0,1-295,1823.6a7.075,7.075,0,0,1-2.708,2.757,7.944,7.944,0,0,1-4.075,1.021A10.711,10.711,0,0,1-306.4,1826.357Z" transform="translate(-140.423 0)" fill="#c9ea50"/><path d="M-243.537,1746.181h5.486c2.127,13.611,2.153,27.225,2.917,40.837.851,13.613,2.01,27.225,2.973,40.838H-237.7c-.507-6.023-.574-12.048-.857-18.071H-243.6c-.233,6.023-.911,12.048-.664,18.071H-249.8c.313-13.613,1.511-27.226,3.157-40.838C-244.318,1773.406-242.137,1759.793-243.537,1746.181Zm4.652,58.6c-1.178-14.668-.3-29.334-.925-44-.527,14.668-3.324,29.335-3.6,44Z" transform="translate(-181.151 -0.989)" fill="#c9ea50"/><path d="M-519.654,1746.181h6.623c19.534,20.589-3.242,41.177,1.471,61.767-.779-20.588,24.774-41.178,9.428-61.767h6.618c5.282,6.806,6.79,13.613,5.855,20.419-.831,6.806-4.107,13.612-5.993,20.418-2.439,6.806-3.163,13.613-3.432,20.419-.135,6.806.184,13.613,2.939,20.419h-5.528c-8.331-20.486,1.078-40.974,7.1-61.46-7.553,20.488-19.432,40.974-12.422,61.46h-2.763c-5.473-10.243-5.993-20.487-5.233-30.73.86-10.244,5.973-20.487,6.807-30.731-5.612,20.488-16.832,40.974-6.691,61.46H-520.4c-3.664-6.806-4.233-13.612-3.939-20.418a63.438,63.438,0,0,1,4.466-20.419C-514.719,1773.406-507.393,1759.793-519.654,1746.181Z" transform="translate(0 -0.989)" fill="#161719"/><path d="M-429.4,1746.181h5.5c10.83,13.611,6.011,27.225,2.672,40.837-1.486,6.806-1.206,13.612-.806,20.419.633,6.806.405,13.613,3.528,20.419h-5.53c-3.019-6.023-2.51-12.048-2.954-18.071h-5.123c-.128,6.023-1.176,12.048,1.523,18.071h-5.529c-2.867-6.806-1.563-13.613-1.089-20.419.736-6.806,1.646-13.613,4.461-20.419,2.375-6.806,6.222-13.613,7.484-20.419C-423.783,1759.793-425.5,1752.987-429.4,1746.181Zm2.144,58.6c-.715-7.334.716-14.668,2.723-22,1.908-7.333,4.393-14.667,3.457-22-.1,14.668-11.18,29.335-10.754,44Z" transform="translate(-57.049 -0.989)" fill="#161719"/><path d="M-375.492,1746.181h8.342a11.885,11.885,0,0,1,4.791,1.021,12.394,12.394,0,0,1,4.053,2.808,9.453,9.453,0,0,1,2.333,4.033c3.028,10.039-.167,20.078-2.36,30.118a8.637,8.637,0,0,1-1.923,3.879,11.183,11.183,0,0,1-3.489,2.757c.789,12.355,1.974,24.707,5.8,37.06h-5.841c-3.828-11.98-4.34-23.959-4.89-35.937h-2.49a156.228,156.228,0,0,0-.98,17.969c0,5.99-.068,11.979,1.7,17.968h-5.532c-1.865-6.806-1.988-13.612-1.971-20.418.147-6.807.435-13.613,2.388-20.419,1.416-6.806,4.182-13.613,4.875-20.419A30.336,30.336,0,0,0-375.492,1746.181Zm10.46,39.919a3.5,3.5,0,0,0,1.248-1.94c2.43-10.039,5.912-20.079,2.6-30.118a3.943,3.943,0,0,0-1.452-2.042,3.856,3.856,0,0,0-2.368-.816h-2.757c5.629,11.91.431,23.822-2.443,35.733h2.857A3.525,3.525,0,0,0-365.032,1786.1Z" transform="translate(-96.612 -0.989)" fill="#161719"/><path d="M-310.4,1826.357a10,10,0,0,1-3.582-2.757,6.565,6.565,0,0,1-1.477-3.981c.2-11.2-.826-22.393,1.26-33.59,1.785-11.2,5.991-22.393,2.508-33.588a7.322,7.322,0,0,1-.151-3.982,4.779,4.779,0,0,1,2.041-2.756,7.217,7.217,0,0,1,4.021-1.021,10.553,10.553,0,0,1,4.531,1.021,10.09,10.09,0,0,1,3.587,2.756,8.354,8.354,0,0,1,1.784,3.982c1.805,9.833.179,19.67-1.08,29.5h-5.4c1.554-9.834,3.543-19.671,1.331-29.5a3.306,3.306,0,0,0-1.248-1.94,3.482,3.482,0,0,0-2.2-.816,1.94,1.94,0,0,0-1.732.816,2.323,2.323,0,0,0-.279,1.94c3.076,11.2-.65,22.393-2.2,33.589-1.819,11.2-.825,22.393-1.07,33.589a2.607,2.607,0,0,0,.929,1.99,3.2,3.2,0,0,0,2.152.766,3.035,3.035,0,0,0,2.1-.766,2.485,2.485,0,0,0,.828-1.99c.172-9.8-.356-19.6.392-29.4h5.6c-.586,9.8-.124,19.6-.3,29.4A7.9,7.9,0,0,1-299,1823.6a7.074,7.074,0,0,1-2.708,2.757,7.944,7.944,0,0,1-4.075,1.021A10.712,10.712,0,0,1-310.4,1826.357Z" transform="translate(-137.784 0)" fill="#161719"/><path d="M-247.537,1746.181h5.486c2.127,13.611,2.153,27.225,2.917,40.837.851,13.613,2.01,27.225,2.973,40.838H-241.7c-.507-6.023-.574-12.048-.857-18.071H-247.6c-.233,6.023-.911,12.048-.664,18.071H-253.8c.313-13.613,1.511-27.226,3.157-40.838C-248.318,1773.406-246.137,1759.793-247.537,1746.181Zm4.652,58.6c-1.178-14.668-.3-29.334-.925-44-.527,14.668-3.324,29.335-3.6,44Z" transform="translate(-178.513 -0.989)" fill="#161719"/></g></svg>