<svg xmlns="http://www.w3.org/2000/svg" width="93.244" height="81.291" viewBox="0 0 93.244 81.291"><g transform="translate(468.813 -256.062)"><g transform="translate(-467.119 256.062)"><g transform="translate(0)"><path d="M-463.812,256.062h6.6c-1.017,20.493,4.333,40.985,6.624,61.476,2.4-20.492-2.5-40.984,4.249-61.476h6.6c-4.357,13.549-1.961,27.1-.05,40.645,2.021,13.548,3.556,27.1.05,40.646h-5.487c4.5-20.39-.7-40.781-1.772-61.171-.26,20.391,1.935,40.782-3.512,61.171h-2.743c.5-20.39-4.515-40.781-6.271-61.171.568,20.391,2.425,40.782,1.19,61.171h-5.487Q-463.813,296.71-463.812,256.062Z" transform="translate(463.813 -256.062)" fill="#c9ea50"/><path d="M-386.29,256.062h13.617a47.491,47.491,0,0,0-1.53,4.979h-8.055c-2.625,10.536-1.088,21.067.752,31.6h8.087q.461,2.541.932,5.081h-8.142c1.951,11.549,3.64,23.1,1.205,34.65h8.252a43.824,43.824,0,0,1-1.5,4.979H-386.29C-377.813,310.257-395.025,283.157-386.29,256.062Z" transform="translate(414.233 -256.062)" fill="#c9ea50"/><path d="M-336.645,256.062h8.434a7.2,7.2,0,0,1,3.931,1.016,5.514,5.514,0,0,1,2.267,2.794,7.962,7.962,0,0,1,.352,4.013c-3.492,21.88,7.148,43.762,3.744,65.642a8.347,8.347,0,0,1-1.906,4.014,10.6,10.6,0,0,1-3.779,2.794,11.147,11.147,0,0,1-4.609,1.016h-8.434C-326.494,310.257-346.808,283.157-336.645,256.062Zm12.148,75.5a3.356,3.356,0,0,0,1.216-2.032c3.693-21.881-7.8-43.763-4.043-65.642a2.456,2.456,0,0,0-.46-2.032,2.414,2.414,0,0,0-1.992-.813h-2.879c-5.787,23.777,8.834,47.554,3.025,71.332h2.828A3.517,3.517,0,0,0-324.5,331.561Z" transform="translate(381.659 -256.062)" fill="#c9ea50"/><path d="M-274.317,256.062h5.487c-3.067,13.549-1.761,27.1.054,40.645,1.7,13.548,3.9,27.1-.054,40.646h-5.487c4.523-13.548,2.053-27.1.049-40.646C-276.379,283.158-278.024,269.609-274.317,256.062Z" transform="translate(339.957 -256.062)" fill="#c9ea50"/><path d="M-239.024,256.062h5.487c0,13.548,1.757,27.1,2.934,40.645,1.412,13.549,2.1,27.1,2.96,40.645h-5.487c.281-5.994.39-11.991.143-17.986H-237.3a97.138,97.138,0,0,1-2.331,17.986h-5.487c4.487-13.548,3.419-27.1,3.058-40.645C-242.326,283.159-241.992,269.61-239.024,256.062Zm5.687,58.326c-1.12-14.6-3.207-29.2-3.775-43.8-1.112,14.6-.318,29.2-.138,43.8Z" transform="translate(319.194 -256.062)" fill="#c9ea50"/></g></g><g transform="translate(-468.813 256.062)"><g transform="translate(0)"><path d="M-468.812,256.062h6.6c-1.017,20.493,4.333,40.985,6.624,61.476,2.4-20.492-2.5-40.984,4.249-61.476h6.6c-4.357,13.549-1.961,27.1-.05,40.645,2.021,13.548,3.556,27.1.05,40.646h-5.487c4.5-20.39-.7-40.781-1.772-61.171-.26,20.391,1.935,40.782-3.512,61.171h-2.743c.5-20.39-4.515-40.781-6.271-61.171.568,20.391,2.425,40.782,1.19,61.171h-5.487Q-468.813,296.71-468.812,256.062Z" transform="translate(468.813 -256.062)" fill="#161719"/><path d="M-391.29,256.062h13.617a47.5,47.5,0,0,0-1.53,4.979h-8.055c-2.625,10.536-1.088,21.067.752,31.6h8.087q.461,2.541.932,5.081h-8.142c1.951,11.549,3.64,23.1,1.205,34.65h8.252a43.824,43.824,0,0,1-1.5,4.979H-391.29C-382.813,310.257-400.025,283.157-391.29,256.062Z" transform="translate(419.233 -256.062)" fill="#161719"/><path d="M-341.645,256.062h8.434a7.2,7.2,0,0,1,3.931,1.016,5.513,5.513,0,0,1,2.267,2.794,7.961,7.961,0,0,1,.352,4.013c-3.492,21.88,7.148,43.762,3.744,65.642a8.347,8.347,0,0,1-1.906,4.014,10.6,10.6,0,0,1-3.779,2.794,11.147,11.147,0,0,1-4.609,1.016h-8.434C-331.494,310.257-351.808,283.157-341.645,256.062Zm12.148,75.5a3.356,3.356,0,0,0,1.216-2.032c3.693-21.881-7.8-43.763-4.043-65.642a2.456,2.456,0,0,0-.46-2.032,2.414,2.414,0,0,0-1.992-.813h-2.879c-5.787,23.777,8.834,47.554,3.025,71.332h2.828A3.517,3.517,0,0,0-329.5,331.561Z" transform="translate(386.659 -256.062)" fill="#161719"/><path d="M-279.317,256.062h5.487c-3.067,13.549-1.761,27.1.054,40.645,1.7,13.548,3.9,27.1-.054,40.646h-5.487c4.523-13.548,2.053-27.1.049-40.646C-281.379,283.158-283.024,269.609-279.317,256.062Z" transform="translate(344.957 -256.062)" fill="#161719"/><path d="M-244.024,256.062h5.487c0,13.548,1.757,27.1,2.934,40.645,1.412,13.549,2.1,27.1,2.96,40.645h-5.487c.281-5.994.39-11.991.143-17.986H-242.3a97.138,97.138,0,0,1-2.331,17.986h-5.487c4.487-13.548,3.419-27.1,3.058-40.645C-247.326,283.159-246.992,269.61-244.024,256.062Zm5.687,58.326c-1.12-14.6-3.207-29.2-3.775-43.8-1.112,14.6-.318,29.2-.138,43.8Z" transform="translate(324.194 -256.062)" fill="#161719"/></g></g></g></svg>