<svg xmlns="http://www.w3.org/2000/svg" width="661.994" height="257.734" viewBox="0 0 661.994 257.734"><g transform="translate(-116 -3586.959)"><g transform="translate(68.16 2817.666)"><g transform="translate(51.84 769.293)"><path d="M71.126,769.743q8.681.005,17.352,0c8.45,42.425,12.3,84.851,8.266,127.276C94.5,939.445,84.377,981.87,106.01,1024.3q-8.517,0-17.02,0c-5.689-18.77-9.143-37.543-9.242-56.32q-6.168.006-12.219,0c-1.043,18.777-.1,37.543,1.3,56.32q-8.5,0-16.991,0C53.233,939.445,69.666,854.594,71.126,769.743Zm8.591,182.642c3.539-45.71,6.806-91.427,2.7-137.14-1.262,45.714-8.86,91.427-13.919,137.14Z" transform="translate(-51.84 -768.152)" fill="#c9ea50"/><path d="M78.351,769.743q8.665.005,17.327,0c13.41,39.83,10.012,79.657.124,119.481-8.779,39.827-24.052,79.65-8.775,119.481q10.4.005,20.9,0c2.482,5.2,5.459,10.4,8.612,15.591q-19.744,0-39.449,0C42.622,939.445,108.788,854.594,78.351,769.743Z" transform="translate(-13.779 -768.152)" fill="#c9ea50"/><path d="M119.591,1024a57.83,57.83,0,0,1-15.63-8.591,35.782,35.782,0,0,1-10.564-12.25c-16.942-35,1.994-70,15.075-105,14.287-35,22.715-70,12.554-105a29.558,29.558,0,0,1-.866-12.25c.587-3.709,1.87-6.576,4.338-8.591s5.911-3.023,10.8-3.023a49.915,49.915,0,0,1,16.348,3.023,53.341,53.341,0,0,1,15.782,8.591c4.6,3.716,7.813,7.8,9.443,12.25,13.569,35,1.439,70-15.8,105-16.189,35-37.49,70-18,105a43.874,43.874,0,0,1,5.088,12.25c.771,3.716.255,6.576-1.937,8.591s-5.816,3.03-10.921,3.023A46.189,46.189,0,0,1,119.591,1024Zm8.163-14.955c.59-1.591.184-3.546-1.1-5.886-18.833-35,1.913-70,17.182-105,16.4-35,27.318-70,14.828-105a11.585,11.585,0,0,0-4.783-5.887,13.972,13.972,0,0,0-7.916-2.386c-2.669,0-4.554.8-5.8,2.386a6.138,6.138,0,0,0-.8,5.887c11.313,35,1.672,70-13.7,105-14.2,35-34.131,70-16.175,105a15.2,15.2,0,0,0,5.791,5.886,14.8,14.8,0,0,0,7.644,2.387C125.576,1011.436,127.164,1010.644,127.754,1009.049Z" transform="translate(36.514 -769.293)" fill="#c9ea50"/><path d="M148.166,785.334H129.311a68.926,68.926,0,0,0-11.144-15.591q26.845.005,53.629,0a79.461,79.461,0,0,1,12.858,15.591h-18.7c53.2,79.654-99.389,159.308-15.687,238.961q-8.575,0-17.129,0C51.623,944.642,199.769,864.988,148.166,785.334Z" transform="translate(90.817 -768.152)" fill="#c9ea50"/><path d="M149.96,769.743q13.078.005,26.134,0a53.491,53.491,0,0,1,17.051,3.185,67.373,67.373,0,0,1,17.3,8.747c5.179,3.716,9.121,7.905,11.462,12.568,15.432,31.289,1.6,62.581-16.1,93.87A42.229,42.229,0,0,1,195.246,900.2a60.676,60.676,0,0,1-14.273,8.588c-16.175,38.5-26.3,77,21.46,115.5q-9.074,0-18.13,0c-45.9-37.331-36.472-74.669-19.9-112h-7.612c-21.039,37.338-35.026,74.669,6.845,112q-8.586,0-17.154,0C55.531,939.445,238.428,854.594,149.96,769.743Zm32.675,124.416a17.207,17.207,0,0,0,5.954-6.046c17.472-31.292,30.472-62.577,15.733-93.87a15.566,15.566,0,0,0-6.12-6.364,16.312,16.312,0,0,0-8.467-2.546h-9.09c23.281,37.119,5.915,74.248-15.054,111.367q4.455.005,8.909,0A15.016,15.016,0,0,0,182.635,894.159Z" transform="translate(121.902 -768.152)" fill="#c9ea50"/><path d="M175.871,1024a71.478,71.478,0,0,1-17.568-8.591c-5.466-3.705-9.567-7.8-12.028-12.25-39.236-70.005,79.4-140,40.226-210.006a46.3,46.3,0,0,1-5.084-12.25c-.824-3.709-.64-6.576,1.142-8.591,1.757-2.012,4.957-3.023,9.85-3.023a55.58,55.58,0,0,1,16.995,3.023,69.774,69.774,0,0,1,17.6,8.591c5.416,3.716,9.578,7.8,12.2,12.25,37.677,70-77.43,140-39.01,210.006a46.808,46.808,0,0,1,4.3,12.25c.651,3.716.279,6.576-1.676,8.591s-5.3,3.03-10.408,3.023A53.433,53.433,0,0,1,175.871,1024Zm7.371-14.955c.7-1.591.4-3.546-.8-5.886-38.908-70.005,78.02-140,39.639-210.006a16.722,16.722,0,0,0-6.2-5.887,16.418,16.418,0,0,0-8.284-2.386c-2.556,0-4.1.8-4.773,2.386s-.29,3.553,1.054,5.887c38.9,70-79.247,140-40.057,210.006a15.268,15.268,0,0,0,6.127,5.886,16.484,16.484,0,0,0,8.117,2.387C180.863,1011.436,182.546,1010.644,183.243,1009.049Z" transform="translate(167.131 -769.293)" fill="#c9ea50"/><path d="M192.863,769.743q8.57.005,17.122,0c42.956,39.83,22.379,79.657,3.21,119.481-20.248,39.827-39.088,79.65-17.571,119.481q11.768.005,23.578,0a65.965,65.965,0,0,0,10.352,15.591q-19.988,0-39.94,0C107.839,939.445,278.647,854.594,192.863,769.743Z" transform="translate(239.583 -768.152)" fill="#c9ea50"/><path d="M219.349,769.743q8.549.005,17.083,0c43.384,42.425,21.234,84.851,8.05,127.276-12.537,42.425-13.852,84.851,8.057,127.276q-8.655,0-17.292,0c-14.043-18.77-15.248-37.543-16.21-56.32q-8.384.006-16.744,0c-.955,18.777-1.255,37.543,12.47,56.32q-8.644,0-17.271,0C134.658,939.445,287.1,854.594,219.349,769.743Zm-.421,182.642c-1.807-45.71,36.277-91.427,31.108-137.14,1.3,45.714-41.952,91.427-45.986,137.14Z" transform="translate(278.036 -768.152)" fill="#c9ea50"/><path d="M215.76,769.743q13.12.005,26.215,0a38.954,38.954,0,0,1,27.371,11.932,28.744,28.744,0,0,1,6.979,12.568c11.593,68.517-28.436,137.038-14.937,205.551a25.742,25.742,0,0,1-1.736,12.568,18.61,18.61,0,0,1-7.223,8.75,21.858,21.858,0,0,1-12.162,3.182q-13.311,0-26.608,0c-21.467-42.426-12.356-84.851,2.379-127.276C229.428,854.594,248.445,812.169,215.76,769.743Zm25.2,236.416a7.736,7.736,0,0,0,1.775-6.364c-16.507-68.517,32.7-137.031,18.384-205.551a12.63,12.63,0,0,0-4.5-6.364,11.609,11.609,0,0,0-7.18-2.546h-8.252c17.737,37.232,1.775,74.457-8.46,111.685-11.483,37.228-17.239,74.457-7.845,111.685q4.736.005,9.471,0C237.287,1008.7,239.455,1007.867,240.957,1006.159Z" transform="translate(326.204 -768.152)" fill="#c9ea50"/><path d="M240.4,1024a31.887,31.887,0,0,1-11.437-8.591,21.742,21.742,0,0,1-5.293-12.25c-12.12-70.005,22.733-140,11.706-210.006a23.777,23.777,0,0,1-.057-12.25,14.441,14.441,0,0,1,6.6-8.591,23.768,23.768,0,0,1,12.413-3.023,31.641,31.641,0,0,1,13.947,3.023,21.245,21.245,0,0,1,9.39,8.591,24.085,24.085,0,0,1,3.076,12.25v210.006a22.712,22.712,0,0,1-3.539,12.25,23.471,23.471,0,0,1-9.436,8.591,28.85,28.85,0,0,1-13.438,3.023A33.3,33.3,0,0,1,240.4,1024Zm19.1-14.955a7.362,7.362,0,0,0,2.542-5.886c-4.225-70.005,7.845-140,4.045-210.006a9.074,9.074,0,0,0-2.652-5.887,8.373,8.373,0,0,0-6.162-2.386,6.779,6.779,0,0,0-5.48,2.386,6.974,6.974,0,0,0-1.382,5.887c7.612,70-16.5,140-8.086,210.006a7.951,7.951,0,0,0,3.143,5.886,10.726,10.726,0,0,0,7,2.387A10.032,10.032,0,0,0,259.5,1009.049Z" transform="translate(377.246 -769.293)" fill="#c9ea50"/></g></g><g transform="translate(64.16 2817.666)"><g transform="translate(51.84 769.293)"><path d="M71.126,769.743q8.681.005,17.352,0c8.45,42.425,12.3,84.851,8.266,127.276C94.5,939.445,84.377,981.87,106.01,1024.3q-8.517,0-17.02,0c-5.689-18.77-9.143-37.543-9.242-56.32q-6.168.006-12.219,0c-1.043,18.777-.1,37.543,1.3,56.32q-8.5,0-16.991,0C53.233,939.445,69.666,854.594,71.126,769.743Zm8.591,182.642c3.539-45.71,6.806-91.427,2.7-137.14-1.262,45.714-8.86,91.427-13.919,137.14Z" transform="translate(-51.84 -768.152)"/><path d="M78.351,769.743q8.665.005,17.327,0c13.41,39.83,10.012,79.657.124,119.481-8.779,39.827-24.052,79.65-8.775,119.481q10.4.005,20.9,0c2.482,5.2,5.459,10.4,8.612,15.591q-19.744,0-39.449,0C42.622,939.445,108.788,854.594,78.351,769.743Z" transform="translate(-13.779 -768.152)"/><path d="M119.591,1024a57.83,57.83,0,0,1-15.63-8.591,35.782,35.782,0,0,1-10.564-12.25c-16.942-35,1.994-70,15.075-105,14.287-35,22.715-70,12.554-105a29.558,29.558,0,0,1-.866-12.25c.587-3.709,1.87-6.576,4.338-8.591s5.911-3.023,10.8-3.023a49.915,49.915,0,0,1,16.348,3.023,53.341,53.341,0,0,1,15.782,8.591c4.6,3.716,7.813,7.8,9.443,12.25,13.569,35,1.439,70-15.8,105-16.189,35-37.49,70-18,105a43.874,43.874,0,0,1,5.088,12.25c.771,3.716.255,6.576-1.937,8.591s-5.816,3.03-10.921,3.023A46.189,46.189,0,0,1,119.591,1024Zm8.163-14.955c.59-1.591.184-3.546-1.1-5.886-18.833-35,1.913-70,17.182-105,16.4-35,27.318-70,14.828-105a11.585,11.585,0,0,0-4.783-5.887,13.972,13.972,0,0,0-7.916-2.386c-2.669,0-4.554.8-5.8,2.386a6.138,6.138,0,0,0-.8,5.887c11.313,35,1.672,70-13.7,105-14.2,35-34.131,70-16.175,105a15.2,15.2,0,0,0,5.791,5.886,14.8,14.8,0,0,0,7.644,2.387C125.576,1011.436,127.164,1010.644,127.754,1009.049Z" transform="translate(36.514 -769.293)"/><path d="M148.166,785.334H129.311a68.926,68.926,0,0,0-11.144-15.591q26.845.005,53.629,0a79.461,79.461,0,0,1,12.858,15.591h-18.7c53.2,79.654-99.389,159.308-15.687,238.961q-8.575,0-17.129,0C51.623,944.642,199.769,864.988,148.166,785.334Z" transform="translate(90.817 -768.152)"/><path d="M149.96,769.743q13.078.005,26.134,0a53.491,53.491,0,0,1,17.051,3.185,67.373,67.373,0,0,1,17.3,8.747c5.179,3.716,9.121,7.905,11.462,12.568,15.432,31.289,1.6,62.581-16.1,93.87A42.229,42.229,0,0,1,195.246,900.2a60.676,60.676,0,0,1-14.273,8.588c-16.175,38.5-26.3,77,21.46,115.5q-9.074,0-18.13,0c-45.9-37.331-36.472-74.669-19.9-112h-7.612c-21.039,37.338-35.026,74.669,6.845,112q-8.586,0-17.154,0C55.531,939.445,238.428,854.594,149.96,769.743Zm32.675,124.416a17.207,17.207,0,0,0,5.954-6.046c17.472-31.292,30.472-62.577,15.733-93.87a15.566,15.566,0,0,0-6.12-6.364,16.312,16.312,0,0,0-8.467-2.546h-9.09c23.281,37.119,5.915,74.248-15.054,111.367q4.455.005,8.909,0A15.016,15.016,0,0,0,182.635,894.159Z" transform="translate(121.902 -768.152)"/><path d="M175.871,1024a71.478,71.478,0,0,1-17.568-8.591c-5.466-3.705-9.567-7.8-12.028-12.25-39.236-70.005,79.4-140,40.226-210.006a46.3,46.3,0,0,1-5.084-12.25c-.824-3.709-.64-6.576,1.142-8.591,1.757-2.012,4.957-3.023,9.85-3.023a55.58,55.58,0,0,1,16.995,3.023,69.774,69.774,0,0,1,17.6,8.591c5.416,3.716,9.578,7.8,12.2,12.25,37.677,70-77.43,140-39.01,210.006a46.808,46.808,0,0,1,4.3,12.25c.651,3.716.279,6.576-1.676,8.591s-5.3,3.03-10.408,3.023A53.433,53.433,0,0,1,175.871,1024Zm7.371-14.955c.7-1.591.4-3.546-.8-5.886-38.908-70.005,78.02-140,39.639-210.006a16.722,16.722,0,0,0-6.2-5.887,16.418,16.418,0,0,0-8.284-2.386c-2.556,0-4.1.8-4.773,2.386s-.29,3.553,1.054,5.887c38.9,70-79.247,140-40.057,210.006a15.268,15.268,0,0,0,6.127,5.886,16.484,16.484,0,0,0,8.117,2.387C180.863,1011.436,182.546,1010.644,183.243,1009.049Z" transform="translate(167.131 -769.293)"/><path d="M192.863,769.743q8.57.005,17.122,0c42.956,39.83,22.379,79.657,3.21,119.481-20.248,39.827-39.088,79.65-17.571,119.481q11.768.005,23.578,0a65.965,65.965,0,0,0,10.352,15.591q-19.988,0-39.94,0C107.839,939.445,278.647,854.594,192.863,769.743Z" transform="translate(239.583 -768.152)"/><path d="M219.349,769.743q8.549.005,17.083,0c43.384,42.425,21.234,84.851,8.05,127.276-12.537,42.425-13.852,84.851,8.057,127.276q-8.655,0-17.292,0c-14.043-18.77-15.248-37.543-16.21-56.32q-8.384.006-16.744,0c-.955,18.777-1.255,37.543,12.47,56.32q-8.644,0-17.271,0C134.658,939.445,287.1,854.594,219.349,769.743Zm-.421,182.642c-1.807-45.71,36.277-91.427,31.108-137.14,1.3,45.714-41.952,91.427-45.986,137.14Z" transform="translate(278.036 -768.152)"/><path d="M215.76,769.743q13.12.005,26.215,0a38.954,38.954,0,0,1,27.371,11.932,28.744,28.744,0,0,1,6.979,12.568c11.593,68.517-28.436,137.038-14.937,205.551a25.742,25.742,0,0,1-1.736,12.568,18.61,18.61,0,0,1-7.223,8.75,21.858,21.858,0,0,1-12.162,3.182q-13.311,0-26.608,0c-21.467-42.426-12.356-84.851,2.379-127.276C229.428,854.594,248.445,812.169,215.76,769.743Zm25.2,236.416a7.736,7.736,0,0,0,1.775-6.364c-16.507-68.517,32.7-137.031,18.384-205.551a12.63,12.63,0,0,0-4.5-6.364,11.609,11.609,0,0,0-7.18-2.546h-8.252c17.737,37.232,1.775,74.457-8.46,111.685-11.483,37.228-17.239,74.457-7.845,111.685q4.736.005,9.471,0C237.287,1008.7,239.455,1007.867,240.957,1006.159Z" transform="translate(326.204 -768.152)"/><path d="M240.4,1024a31.887,31.887,0,0,1-11.437-8.591,21.742,21.742,0,0,1-5.293-12.25c-12.12-70.005,22.733-140,11.706-210.006a23.777,23.777,0,0,1-.057-12.25,14.441,14.441,0,0,1,6.6-8.591,23.768,23.768,0,0,1,12.413-3.023,31.641,31.641,0,0,1,13.947,3.023,21.245,21.245,0,0,1,9.39,8.591,24.085,24.085,0,0,1,3.076,12.25v210.006a22.712,22.712,0,0,1-3.539,12.25,23.471,23.471,0,0,1-9.436,8.591,28.85,28.85,0,0,1-13.438,3.023A33.3,33.3,0,0,1,240.4,1024Zm19.1-14.955a7.362,7.362,0,0,0,2.542-5.886c-4.225-70.005,7.845-140,4.045-210.006a9.074,9.074,0,0,0-2.652-5.887,8.373,8.373,0,0,0-6.162-2.386,6.779,6.779,0,0,0-5.48,2.386,6.974,6.974,0,0,0-1.382,5.887c7.612,70-16.5,140-8.086,210.006a7.951,7.951,0,0,0,3.143,5.886,10.726,10.726,0,0,0,7,2.387A10.032,10.032,0,0,0,259.5,1009.049Z" transform="translate(377.246 -769.293)"/></g></g></g></svg>