<svg xmlns="http://www.w3.org/2000/svg" width="487.832" height="226.553" viewBox="0 0 487.832 226.553"><g transform="translate(-52.649 -284.389)"><g transform="translate(55.794 284.389)"><path d="M57.36,458.755a18.164,18.164,0,0,1-3.493-11.27V316.9a15.713,15.713,0,0,1,2.824-9.178,18.488,18.488,0,0,1,7.565-6.271,24.948,24.948,0,0,1,10.64-2.21,26.615,26.615,0,0,1,11.055,2.21,17.567,17.567,0,0,1,7.611,6.271,15.915,15.915,0,0,1,2.659,9.178c2.1,43.529-12.568,87.059-11.564,130.588a18.4,18.4,0,0,1-2.427,10.924,13.186,13.186,0,0,1-8.272,6.039,206.369,206.369,0,0,0,7.782,21.845H69.069c-.862-7.2-1.688-14.406-2.241-21.612A15.169,15.169,0,0,1,57.36,458.755ZM73.07,451.9a6.629,6.629,0,0,0,1.3-4.415c-.674-43.529,9.586-87.059,7.98-130.588a5.733,5.733,0,0,0-2.034-4.415,7.756,7.756,0,0,0-5.4-1.859,7.4,7.4,0,0,0-5.14,1.859,5.782,5.782,0,0,0-2.06,4.415c.883,43.529-4.314,87.059-3.986,130.588a6.838,6.838,0,0,0,1.606,4.415,4.842,4.842,0,0,0,3.847,1.861A4.608,4.608,0,0,0,73.07,451.9Z" transform="translate(-53.867 -260.901)" fill="#c9ea50"/><path d="M85.917,484.416a27.732,27.732,0,0,1-8.9-6.271,20.354,20.354,0,0,1-5.027-9.062C59.219,412.619,89.338,356.155,82.359,299.688q6.928,0,13.857,0c8.231,56.467-28.408,112.928-12.868,169.395a8.707,8.707,0,0,0,3.222,4.531,8.29,8.29,0,0,0,5,1.74q2.839,0,3.883-1.74c.694-1.162.669-2.675,0-4.531-18.2-56.464,24.677-112.928,15.375-169.395q6.917,0,13.82,0c10.1,56.467-38.079,112.928-17.621,169.395,1.374,3.408,2.05,6.429,1.787,9.062a8.345,8.345,0,0,1-3.522,6.271,14.348,14.348,0,0,1-8.577,2.326A26.117,26.117,0,0,1,85.917,484.416Z" transform="translate(-30.256 -260.189)" fill="#c9ea50"/><path d="M109.388,323.888q17.1,0,34.082,0c.227,3.8.287,7.593.214,11.388h-20.36c-.1,24.086-5.621,48.177-14.533,72.265h18.22c-1.5,3.873-3.023,7.745-4.492,11.618H104.7c-9.659,26.412-15.264,52.824-.139,79.233h17.8a134.994,134.994,0,0,0,7.549,11.388H98.931C57.036,447.815,121.362,385.851,109.388,323.888Zm9.762-39.5h14.871c2.75,10.844-.452,21.687-5.05,32.528H118.594C121.38,306.076,123.027,295.23,119.149,284.389Z" transform="translate(-5.294 -284.389)" fill="#c9ea50"/><path d="M142.354,299.688q6.766,0,13.5,0c2.577,27.886-7.727,55.77-20.735,83.653h13.121c13.252-27.883,24.568-55.767,21.778-83.653q6.688,0,13.335,0c11.161,61.963-77.147,123.929-19.111,185.893H151.713c-28.149-30.21-22.387-60.414-8.693-90.621H130c-13.658,30.207-19.167,60.412,8.5,90.621H125.991C70.939,423.615,155,361.651,142.354,299.688Z" transform="translate(30.337 -260.189)" fill="#c9ea50"/><path d="M176.242,299.688q6.572,0,13.09,0c13.415,61.963-69.231,123.929-7.314,185.893H169.472c-13.382-13.709-19.63-27.419-21.333-41.128H136.8c.441,13.707,5.716,27.416,17.8,41.128H142.079C88.437,423.615,181.509,361.651,176.242,299.688Zm-28.81,133.379c.945-33.383,25.16-66.768,32.267-100.148-10.492,33.383-37.883,66.766-42.419,100.148Q142.338,433.063,147.432,433.067Z" transform="translate(59.224 -260.189)" fill="#c9ea50"/><path d="M170.216,485.128a49.619,49.619,0,0,1-12-6.271,26.972,26.972,0,0,1-8.316-9.062c-27.163-50.965,27.408-101.93,33.471-152.9a20.393,20.393,0,0,1,3.07-9.062,18.734,18.734,0,0,1,6.615-6.271,19.375,19.375,0,0,1,9.71-2.326,22.672,22.672,0,0,1,10.136,2.326,17.612,17.612,0,0,1,7.265,6.271,13.555,13.555,0,0,1,1.952,9.062c-2.628,22.387-15.509,44.771-25.3,67.155H184.173C194.252,361.666,207,339.284,209.565,316.9a5.129,5.129,0,0,0-1.611-4.415,6.521,6.521,0,0,0-4.735-1.859,6.742,6.742,0,0,0-4.784,1.859,6.94,6.94,0,0,0-2.256,4.415c-7.01,50.967-59.9,101.932-33.5,152.9a11.314,11.314,0,0,0,4.446,4.531,11.484,11.484,0,0,0,5.817,1.74c1.887,0,3.114-.578,3.754-1.74s.46-2.675-.46-4.531c-10.655-22.307-7.368-44.614.276-66.92h12.9c-7.27,22.307-10.366,44.614-.263,66.92a25.979,25.979,0,0,1,2.752,9.062c.176,2.634-.405,4.727-2.006,6.271s-4.079,2.326-7.647,2.326A35.5,35.5,0,0,1,170.216,485.128Z" transform="translate(86.122 -260.901)" fill="#c9ea50"/><path d="M200.641,299.688q15.379,0,30.318,0a62.1,62.1,0,0,1,.5,11.388H213.468c-1.115,24.086-15.323,48.177-25.2,72.265H207.1c-1.505,3.873-2.907,7.745-4.17,11.618H183.769c-8.837,26.412-13.412,52.824-.142,79.233H202.8a62.977,62.977,0,0,0,7.356,11.388H178.936C128.02,423.615,204.746,361.651,200.641,299.688Z" transform="translate(116.268 -260.189)" fill="#c9ea50"/><path d="M212.948,299.688q7.188,0,14.262,0c6.744,46.862-28.9,93.722-18.695,140.582-.449-46.86,40.831-93.72,41.663-140.582q6.874,0,13.627,0c-1.394,61.963-45.533,123.929-15.961,185.893H235.231c-21.5-46.627-5.68-93.255,11.011-139.882-20.043,46.627-42.613,93.255-23.154,139.882h-6.3c-30.23-46.627-15.816-93.255-.831-139.882-18.238,46.627-38.97,93.255-10.836,139.882h-12.6C149.092,423.615,214.288,361.651,212.948,299.688Z" transform="translate(141.823 -260.189)" fill="#c9ea50"/><path d="M222.773,485.244a29.267,29.267,0,0,1-9.563-6.274A17.989,17.989,0,0,1,208,470.027C196.353,418.9,218.678,367.785,228.8,316.665a22.814,22.814,0,0,1,2.6-8.946,16.083,16.083,0,0,1,5.69-6.271,15.148,15.148,0,0,1,8.159-2.21,17.492,17.492,0,0,1,8.742,2.21A14.847,14.847,0,0,1,260,307.719a17.206,17.206,0,0,1,1.815,8.946c-7.11,51.12-19.129,102.24-12.762,153.362a17.883,17.883,0,0,1-1.126,8.943,12.545,12.545,0,0,1-5.285,6.274,17.4,17.4,0,0,1-9.163,2.21A28.068,28.068,0,0,1,222.773,485.244Zm11.582-10.918a4.94,4.94,0,0,0,1.229-4.3c-8.1-51.122,7.276-102.242,15.623-153.362a5.912,5.912,0,0,0-1.265-4.3,4.942,4.942,0,0,0-4.03-1.743,5.71,5.71,0,0,0-4.149,1.743,6.553,6.553,0,0,0-1.962,4.3c-9.385,51.12-28.328,102.24-18.4,153.362a6.8,6.8,0,0,0,2.874,4.3,8.791,8.791,0,0,0,5.319,1.74A6.155,6.155,0,0,0,234.355,474.326Z" transform="translate(184.75 -260.901)" fill="#c9ea50"/><path d="M238.208,485.244a22.7,22.7,0,0,1-8.177-6.274,16.637,16.637,0,0,1-3.855-9.176c-1.454-19.364-1.084-38.727-.439-58.091h13.681c-.4,19.364-.651,38.727.284,58.091a6.128,6.128,0,0,0,2.311,4.531,7.73,7.73,0,0,0,5.076,1.74,7.246,7.246,0,0,0,5.094-1.74,5.638,5.638,0,0,0,1.825-4.531c-.436-19.906-.312-39.811-.111-59.717q.085-5.813-2.845-8.6a39.231,39.231,0,0,0-8.724-5.809,71.773,71.773,0,0,1-7.929-4.534,12.872,12.872,0,0,1-4.536-5.809q-1.634-3.83-.8-9.873c2.639-19.518,6.769-39.039,7.738-58.558a22.429,22.429,0,0,1,2.3-9.178,15.634,15.634,0,0,1,5.45-6.271,13.945,13.945,0,0,1,7.727-2.21,14.785,14.785,0,0,1,8.022,2.21,14.3,14.3,0,0,1,5.393,6.271,21.552,21.552,0,0,1,1.89,9.178v53.676H255.217c.9-17.892,2.187-35.784,2.5-53.676a6.769,6.769,0,0,0-1.415-4.415,4.824,4.824,0,0,0-7.611,0,7.16,7.16,0,0,0-1.611,4.415c-.638,18.434-3.284,36.868-5.1,55.3q-.608,6.049,2.011,9.065c1.748,2.014,4.73,4.105,9.01,6.274,3.008,1.549,5.543,2.943,7.572,4.182a13.915,13.915,0,0,1,5.011,5.693,20.4,20.4,0,0,1,1.993,9.408v62.973a17.091,17.091,0,0,1-9.447,15.449,21.274,21.274,0,0,1-9.842,2.21A23.81,23.81,0,0,1,238.208,485.244Z" transform="translate(217.101 -260.901)" fill="#c9ea50"/></g><g transform="translate(52.649 284.389)"><path d="M56.142,458.755a18.164,18.164,0,0,1-3.493-11.27V316.9a15.713,15.713,0,0,1,2.825-9.178,18.5,18.5,0,0,1,7.565-6.271,24.952,24.952,0,0,1,10.642-2.21,26.612,26.612,0,0,1,11.053,2.21,17.567,17.567,0,0,1,7.611,6.271A15.914,15.914,0,0,1,95,316.9c2.1,43.529-12.568,87.059-11.564,130.588a18.383,18.383,0,0,1-2.427,10.924,13.179,13.179,0,0,1-8.272,6.039,206.956,206.956,0,0,0,7.782,21.845H67.851c-.862-7.2-1.689-14.406-2.241-21.612A15.176,15.176,0,0,1,56.142,458.755Zm15.71-6.855a6.629,6.629,0,0,0,1.3-4.415c-.674-43.529,9.586-87.059,7.983-130.588a5.736,5.736,0,0,0-2.037-4.415,7.756,7.756,0,0,0-5.4-1.859,7.4,7.4,0,0,0-5.14,1.859A5.773,5.773,0,0,0,66.5,316.9c.883,43.529-4.314,87.059-3.984,130.588a6.822,6.822,0,0,0,1.6,4.415,4.842,4.842,0,0,0,3.847,1.861A4.608,4.608,0,0,0,71.852,451.9Z" transform="translate(-52.649 -260.901)"/><path d="M84.7,484.416a27.733,27.733,0,0,1-8.9-6.271,20.324,20.324,0,0,1-5.024-9.062C58,412.619,88.119,356.155,81.14,299.688q6.928,0,13.857,0c8.231,56.467-28.408,112.928-12.868,169.395a8.721,8.721,0,0,0,3.222,4.531,8.29,8.29,0,0,0,5,1.74q2.839,0,3.883-1.74c.694-1.162.669-2.675,0-4.531-18.2-56.464,24.677-112.928,15.375-169.395q6.917,0,13.82,0c10.1,56.467-38.079,112.928-17.621,169.395,1.374,3.408,2.05,6.429,1.787,9.062a8.345,8.345,0,0,1-3.522,6.271,14.348,14.348,0,0,1-8.577,2.326A26.117,26.117,0,0,1,84.7,484.416Z" transform="translate(-29.037 -260.189)"/><path d="M108.17,323.888q17.1,0,34.082,0c.227,3.8.287,7.593.214,11.388h-20.36c-.093,24.086-5.621,48.177-14.533,72.265h18.22c-1.5,3.873-3.023,7.745-4.492,11.618H103.484c-9.659,26.412-15.266,52.824-.139,79.233h17.8a134.992,134.992,0,0,0,7.549,11.388H97.713C55.818,447.815,120.144,385.851,108.17,323.888Zm9.762-39.5H132.8c2.75,10.844-.449,21.687-5.05,32.528H117.376C120.162,306.076,121.809,295.23,117.931,284.389Z" transform="translate(-4.076 -284.389)"/><path d="M141.136,299.688q6.766,0,13.5,0c2.577,27.886-7.727,55.77-20.734,83.653h13.121c13.252-27.883,24.571-55.767,21.778-83.653q6.688,0,13.335,0c11.161,61.963-77.144,123.929-19.11,185.893H150.5c-28.149-30.21-22.387-60.414-8.693-90.621h-13.02c-13.655,30.207-19.167,60.412,8.5,90.621H124.773C69.721,423.615,153.779,361.651,141.136,299.688Z" transform="translate(31.555 -260.189)"/><path d="M175.024,299.688q6.572,0,13.09,0c13.415,61.963-69.231,123.929-7.314,185.893H168.254c-13.382-13.709-19.629-27.419-21.333-41.128H135.589c.439,13.707,5.714,27.416,17.8,41.128h-12.53C87.219,423.615,180.291,361.651,175.024,299.688Zm-28.81,133.379c.945-33.383,25.16-66.768,32.267-100.148-10.49,33.383-37.883,66.766-42.419,100.148Q141.12,433.063,146.214,433.067Z" transform="translate(60.442 -260.189)"/><path d="M169,485.128a49.62,49.62,0,0,1-12-6.271,26.972,26.972,0,0,1-8.316-9.062c-27.163-50.965,27.408-101.93,33.471-152.9a20.393,20.393,0,0,1,3.07-9.062,18.741,18.741,0,0,1,6.617-6.271,19.358,19.358,0,0,1,9.708-2.326,22.664,22.664,0,0,1,10.136,2.326,17.6,17.6,0,0,1,7.265,6.271A13.555,13.555,0,0,1,220.9,316.9c-2.628,22.387-15.509,44.771-25.3,67.155H182.955c10.079-22.387,22.826-44.768,25.392-67.155a5.129,5.129,0,0,0-1.611-4.415A6.521,6.521,0,0,0,202,310.624a6.738,6.738,0,0,0-4.784,1.859,6.94,6.94,0,0,0-2.256,4.415c-7.007,50.967-59.9,101.932-33.5,152.9a11.314,11.314,0,0,0,4.446,4.531,11.491,11.491,0,0,0,5.817,1.74c1.887,0,3.114-.578,3.754-1.74s.46-2.675-.46-4.531c-10.652-22.307-7.368-44.614.276-66.92h12.9c-7.27,22.307-10.366,44.614-.263,66.92a25.977,25.977,0,0,1,2.752,9.062c.176,2.634-.405,4.727-2.006,6.271s-4.079,2.326-7.647,2.326A35.5,35.5,0,0,1,169,485.128Z" transform="translate(87.34 -260.901)"/><path d="M199.422,299.688q15.379,0,30.318,0a62.1,62.1,0,0,1,.5,11.388H212.249c-1.115,24.086-15.323,48.177-25.2,72.265h18.837c-1.5,3.873-2.907,7.745-4.17,11.618H182.55c-8.837,26.412-13.412,52.824-.142,79.233h19.172a62.835,62.835,0,0,0,7.356,11.388H177.717C126.8,423.615,203.53,361.651,199.422,299.688Z" transform="translate(117.487 -260.189)"/><path d="M211.729,299.688q7.188,0,14.262,0c6.744,46.862-28.9,93.722-18.695,140.582-.449-46.86,40.831-93.72,41.663-140.582q6.874,0,13.627,0c-1.394,61.963-45.533,123.929-15.961,185.893H234.013c-21.5-46.627-5.68-93.255,11.011-139.882-20.043,46.627-42.613,93.255-23.154,139.882h-6.3c-30.23-46.627-15.816-93.255-.831-139.882C196.5,392.326,175.77,438.953,203.9,485.581H191.3C147.876,423.615,213.069,361.651,211.729,299.688Z" transform="translate(143.042 -260.189)"/><path d="M221.555,485.244a29.266,29.266,0,0,1-9.563-6.274,17.988,17.988,0,0,1-5.213-8.943C195.135,418.9,217.46,367.785,227.589,316.665a22.811,22.811,0,0,1,2.595-8.946,16.1,16.1,0,0,1,5.69-6.271,15.148,15.148,0,0,1,8.159-2.21,17.492,17.492,0,0,1,8.742,2.21,14.832,14.832,0,0,1,6.01,6.271,17.206,17.206,0,0,1,1.815,8.946c-7.108,51.12-19.129,102.24-12.762,153.362a17.883,17.883,0,0,1-1.126,8.943,12.553,12.553,0,0,1-5.282,6.274,17.415,17.415,0,0,1-9.165,2.21A28.068,28.068,0,0,1,221.555,485.244Zm11.582-10.918a4.933,4.933,0,0,0,1.229-4.3c-8.1-51.122,7.276-102.242,15.623-153.362a5.913,5.913,0,0,0-1.265-4.3,4.942,4.942,0,0,0-4.03-1.743,5.714,5.714,0,0,0-4.149,1.743,6.553,6.553,0,0,0-1.962,4.3c-9.385,51.12-28.328,102.24-18.4,153.362a6.812,6.812,0,0,0,2.874,4.3,8.785,8.785,0,0,0,5.319,1.74A6.155,6.155,0,0,0,233.137,474.326Z" transform="translate(185.968 -260.901)"/><path d="M236.99,485.244a22.679,22.679,0,0,1-8.177-6.274,16.637,16.637,0,0,1-3.855-9.176c-1.453-19.364-1.084-38.727-.439-58.091H238.2c-.4,19.364-.651,38.727.287,58.091a6.117,6.117,0,0,0,2.308,4.531,7.731,7.731,0,0,0,5.076,1.74,7.246,7.246,0,0,0,5.094-1.74,5.629,5.629,0,0,0,1.825-4.531c-.434-19.906-.312-39.811-.111-59.717q.085-5.813-2.845-8.6a39.231,39.231,0,0,0-8.724-5.809,72.008,72.008,0,0,1-7.929-4.534,12.855,12.855,0,0,1-4.536-5.809q-1.634-3.83-.8-9.873c2.639-19.518,6.77-39.039,7.738-58.558a22.428,22.428,0,0,1,2.3-9.178,15.674,15.674,0,0,1,5.45-6.271,13.945,13.945,0,0,1,7.727-2.21,14.785,14.785,0,0,1,8.022,2.21,14.325,14.325,0,0,1,5.4,6.271,21.59,21.59,0,0,1,1.887,9.178v53.676H254c.9-17.892,2.189-35.784,2.5-53.676a6.783,6.783,0,0,0-1.415-4.415,4.822,4.822,0,0,0-7.609,0,7.146,7.146,0,0,0-1.614,4.415c-.638,18.434-3.281,36.868-5.1,55.3q-.608,6.049,2.011,9.065c1.751,2.014,4.73,4.105,9.011,6.274,3.008,1.549,5.543,2.943,7.572,4.182a13.915,13.915,0,0,1,5.011,5.693,20.4,20.4,0,0,1,1.993,9.408v62.973a17.091,17.091,0,0,1-9.447,15.449,21.274,21.274,0,0,1-9.842,2.21A23.81,23.81,0,0,1,236.99,485.244Z" transform="translate(218.319 -260.901)"/></g></g></svg>