<svg xmlns="http://www.w3.org/2000/svg" width="62.24" height="76.782" viewBox="0 0 62.24 76.782"><g transform="translate(-311.05 -49.547)"><g transform="translate(312.73 49.547)"><path d="M312.594,49.547h5.183c-1.359,20.923,2.559,41.847,3.117,62.77,1.937-20.923-1.856-41.847,2.449-62.77h4.223c-3.463,20.923,4.231,41.847,4.753,62.77,1.686-20.923-4.971-41.847.91-62.77h5.183c-8.021,25.595,2.969,51.189-4.895,76.783h-5.183c2.317-18.779-2.6-37.559-4.323-56.339.2,18.78,1.977,37.56-1.435,56.339h-5.183C316.829,100.736,313.268,75.142,312.594,49.547Z" transform="translate(-312.594 -49.547)" fill="#c9ea50"/><path d="M339.04,49.547H351.9c-.353,1.568-.624,3.135-.841,4.7h-7.823c-1.649,9.949-.722,19.9.5,29.849h7.744q.253,2.4.529,4.8h-7.663c1.406,10.91,2.829,21.82.886,32.73q3.822,0,7.574,0-.374,2.35-.905,4.7H339.04C345.724,100.736,332.326,75.142,339.04,49.547Z" transform="translate(-310.439 -49.547)" fill="#c9ea50"/><path d="M353.82,49.547h7.869a8.467,8.467,0,0,1,4.072.96,7.354,7.354,0,0,1,2.837,2.639,7.075,7.075,0,0,1,1.057,3.791V80.261a6.8,6.8,0,0,1-.991,3.551,5.339,5.339,0,0,1-2.709,2.3,7.217,7.217,0,0,1,2.746,2.5,6.52,6.52,0,0,1,.954,3.551V118.94a7.385,7.385,0,0,1-.951,3.79,6.779,6.779,0,0,1-2.83,2.639,9.017,9.017,0,0,1-4.186.96H353.82C359.1,100.736,348.734,75.142,353.82,49.547ZM363.5,83.332a2.5,2.5,0,0,0,.727-1.92c-.255-8.158-.376-16.316-.149-24.474a2.48,2.48,0,0,0-.744-1.919,2.823,2.823,0,0,0-2.077-.768h-2.807a204.015,204.015,0,0,0,.27,29.849h2.747A2.729,2.729,0,0,0,363.5,83.332Zm.639,37.527a2.8,2.8,0,0,0,.82-1.919c.466-9.118.058-18.236-.338-27.354a2.779,2.779,0,0,0-.837-1.872,2.743,2.743,0,0,0-2.042-.816h-2.671c.853,10.91,1.867,21.82.549,32.73q1.284,0,2.559,0A2.661,2.661,0,0,0,364.144,120.859Z" transform="translate(-309.096 -49.547)" fill="#c9ea50"/></g><g transform="translate(311.05 49.547)"><path d="M311.05,49.547h5.183c-1.359,20.923,2.559,41.847,3.117,62.77,1.938-20.923-1.856-41.847,2.449-62.77h4.223c-3.462,20.923,4.231,41.847,4.753,62.77,1.687-20.923-4.97-41.847.91-62.77h5.183c-8.021,25.595,2.969,51.189-4.895,76.783H326.79c2.317-18.779-2.6-37.559-4.323-56.339.2,18.78,1.977,37.56-1.435,56.339h-5.183C315.286,100.736,311.725,75.142,311.05,49.547Z" transform="translate(-311.05 -49.547)" fill="#17171a"/><path d="M337.5,49.547h12.861c-.351,1.568-.624,3.135-.841,4.7h-7.823c-1.649,9.949-.723,19.9.5,29.849h7.745c.168,1.6.347,3.2.528,4.8H342.8c1.406,10.91,2.83,21.82.886,32.73q3.822,0,7.574,0-.374,2.35-.905,4.7H337.5C344.18,100.736,330.782,75.142,337.5,49.547Z" transform="translate(-308.895 -49.547)" fill="#17171a"/><path d="M352.276,49.547h7.87a8.466,8.466,0,0,1,4.071.96,7.373,7.373,0,0,1,2.838,2.639,7.084,7.084,0,0,1,1.056,3.791V80.261a6.8,6.8,0,0,1-.991,3.551,5.335,5.335,0,0,1-2.709,2.3,7.218,7.218,0,0,1,2.746,2.5,6.51,6.51,0,0,1,.954,3.551V118.94a7.374,7.374,0,0,1-.951,3.79,6.772,6.772,0,0,1-2.83,2.639,9.015,9.015,0,0,1-4.185.96h-7.87C357.552,100.736,347.19,75.142,352.276,49.547Zm9.686,33.785a2.505,2.505,0,0,0,.727-1.92c-.256-8.158-.376-16.316-.149-24.474a2.485,2.485,0,0,0-.745-1.919,2.821,2.821,0,0,0-2.076-.768h-2.808a204.015,204.015,0,0,0,.27,29.849h2.747A2.732,2.732,0,0,0,361.962,83.332Zm.638,37.527a2.8,2.8,0,0,0,.82-1.919c.465-9.118.059-18.236-.337-27.354a2.785,2.785,0,0,0-.838-1.872A2.74,2.74,0,0,0,360.2,88.9h-2.672c.853,10.91,1.868,21.82.551,32.73q1.283,0,2.559,0A2.663,2.663,0,0,0,362.6,120.859Z" transform="translate(-307.552 -49.547)" fill="#17171a"/></g></g></svg>